<?xml version="1.0" encoding="UTF-8"?>
<!DOCTYPE svg PUBLIC "-//W3C//DTD SVG 1.1//EN" "http://www.w3.org/Graphics/SVG/1.1/DTD/svg11.dtd">
<svg width="411mm" height="176mm" viewBox="0 0 41100 17600" version="1.1" xmlns="http://www.w3.org/2000/svg" xmlns:xlink="http://www.w3.org/1999/xlink" stroke-width="28.222" stroke-linejoin="round" xml:space="preserve">
 <path fill="rgb(255,255,255)" stroke="none" d="M 20513,17597 L -13,17597 -13,-13 41038,-13 41038,17597 20513,17597 Z"/>
 <path fill="none" stroke="rgb(179,179,179)" stroke-linejoin="round" d="M 20121,15012 L 3700,15012 3700,3062 36542,3062 36542,15012 20121,15012 Z"/>
 <path fill="none" stroke="rgb(179,179,179)" stroke-linejoin="round" d="M 36542,15011 L 3700,15011"/>
 <path fill="none" stroke="rgb(179,179,179)" stroke-linejoin="round" d="M 36542,13683 L 3700,13683"/>
 <path fill="none" stroke="rgb(179,179,179)" stroke-linejoin="round" d="M 36542,12355 L 3700,12355"/>
 <path fill="none" stroke="rgb(179,179,179)" stroke-linejoin="round" d="M 36542,11027 L 3700,11027"/>
 <path fill="none" stroke="rgb(179,179,179)" stroke-linejoin="round" d="M 36542,9699 L 3700,9699"/>
 <path fill="none" stroke="rgb(179,179,179)" stroke-linejoin="round" d="M 36542,8372 L 3700,8372"/>
 <path fill="none" stroke="rgb(179,179,179)" stroke-linejoin="round" d="M 36542,7044 L 3700,7044"/>
 <path fill="none" stroke="rgb(179,179,179)" stroke-linejoin="round" d="M 36542,5716 L 3700,5716"/>
 <path fill="none" stroke="rgb(179,179,179)" stroke-linejoin="round" d="M 36542,4388 L 3700,4388"/>
 <path fill="none" stroke="rgb(179,179,179)" stroke-linejoin="round" d="M 36542,3061 L 3700,3061"/>
 <path fill="none" stroke="rgb(179,179,179)" stroke-linejoin="round" d="M 3700,15161 L 3700,15011"/>
 <path fill="none" stroke="rgb(179,179,179)" stroke-linejoin="round" d="M 3700,15161 L 3700,15011"/>
 <path fill="none" stroke="rgb(179,179,179)" stroke-linejoin="round" d="M 4695,15161 L 4695,15011"/>
 <path fill="none" stroke="rgb(179,179,179)" stroke-linejoin="round" d="M 4695,15161 L 4695,15011"/>
 <path fill="none" stroke="rgb(179,179,179)" stroke-linejoin="round" d="M 5690,15161 L 5690,15011"/>
 <path fill="none" stroke="rgb(179,179,179)" stroke-linejoin="round" d="M 5690,15161 L 5690,15011"/>
 <path fill="none" stroke="rgb(179,179,179)" stroke-linejoin="round" d="M 6685,15161 L 6685,15011"/>
 <path fill="none" stroke="rgb(179,179,179)" stroke-linejoin="round" d="M 6685,15161 L 6685,15011"/>
 <path fill="none" stroke="rgb(179,179,179)" stroke-linejoin="round" d="M 7680,15161 L 7680,15011"/>
 <path fill="none" stroke="rgb(179,179,179)" stroke-linejoin="round" d="M 7680,15161 L 7680,15011"/>
 <path fill="none" stroke="rgb(179,179,179)" stroke-linejoin="round" d="M 8676,15161 L 8676,15011"/>
 <path fill="none" stroke="rgb(179,179,179)" stroke-linejoin="round" d="M 8676,15161 L 8676,15011"/>
 <path fill="none" stroke="rgb(179,179,179)" stroke-linejoin="round" d="M 9671,15161 L 9671,15011"/>
 <path fill="none" stroke="rgb(179,179,179)" stroke-linejoin="round" d="M 9671,15161 L 9671,15011"/>
 <path fill="none" stroke="rgb(179,179,179)" stroke-linejoin="round" d="M 10666,15161 L 10666,15011"/>
 <path fill="none" stroke="rgb(179,179,179)" stroke-linejoin="round" d="M 10666,15161 L 10666,15011"/>
 <path fill="none" stroke="rgb(179,179,179)" stroke-linejoin="round" d="M 11661,15161 L 11661,15011"/>
 <path fill="none" stroke="rgb(179,179,179)" stroke-linejoin="round" d="M 11661,15161 L 11661,15011"/>
 <path fill="none" stroke="rgb(179,179,179)" stroke-linejoin="round" d="M 12657,15161 L 12657,15011"/>
 <path fill="none" stroke="rgb(179,179,179)" stroke-linejoin="round" d="M 12657,15161 L 12657,15011"/>
 <path fill="none" stroke="rgb(179,179,179)" stroke-linejoin="round" d="M 13652,15161 L 13652,15011"/>
 <path fill="none" stroke="rgb(179,179,179)" stroke-linejoin="round" d="M 13652,15161 L 13652,15011"/>
 <path fill="none" stroke="rgb(179,179,179)" stroke-linejoin="round" d="M 14647,15161 L 14647,15011"/>
 <path fill="none" stroke="rgb(179,179,179)" stroke-linejoin="round" d="M 14647,15161 L 14647,15011"/>
 <path fill="none" stroke="rgb(179,179,179)" stroke-linejoin="round" d="M 15642,15161 L 15642,15011"/>
 <path fill="none" stroke="rgb(179,179,179)" stroke-linejoin="round" d="M 15642,15161 L 15642,15011"/>
 <path fill="none" stroke="rgb(179,179,179)" stroke-linejoin="round" d="M 16638,15161 L 16638,15011"/>
 <path fill="none" stroke="rgb(179,179,179)" stroke-linejoin="round" d="M 16638,15161 L 16638,15011"/>
 <path fill="none" stroke="rgb(179,179,179)" stroke-linejoin="round" d="M 17633,15161 L 17633,15011"/>
 <path fill="none" stroke="rgb(179,179,179)" stroke-linejoin="round" d="M 17633,15161 L 17633,15011"/>
 <path fill="none" stroke="rgb(179,179,179)" stroke-linejoin="round" d="M 18628,15161 L 18628,15011"/>
 <path fill="none" stroke="rgb(179,179,179)" stroke-linejoin="round" d="M 18628,15161 L 18628,15011"/>
 <path fill="none" stroke="rgb(179,179,179)" stroke-linejoin="round" d="M 19623,15161 L 19623,15011"/>
 <path fill="none" stroke="rgb(179,179,179)" stroke-linejoin="round" d="M 19623,15161 L 19623,15011"/>
 <path fill="none" stroke="rgb(179,179,179)" stroke-linejoin="round" d="M 20618,15161 L 20618,15011"/>
 <path fill="none" stroke="rgb(179,179,179)" stroke-linejoin="round" d="M 20618,15161 L 20618,15011"/>
 <path fill="none" stroke="rgb(179,179,179)" stroke-linejoin="round" d="M 21613,15161 L 21613,15011"/>
 <path fill="none" stroke="rgb(179,179,179)" stroke-linejoin="round" d="M 21613,15161 L 21613,15011"/>
 <path fill="none" stroke="rgb(179,179,179)" stroke-linejoin="round" d="M 22608,15161 L 22608,15011"/>
 <path fill="none" stroke="rgb(179,179,179)" stroke-linejoin="round" d="M 22608,15161 L 22608,15011"/>
 <path fill="none" stroke="rgb(179,179,179)" stroke-linejoin="round" d="M 23603,15161 L 23603,15011"/>
 <path fill="none" stroke="rgb(179,179,179)" stroke-linejoin="round" d="M 23603,15161 L 23603,15011"/>
 <path fill="none" stroke="rgb(179,179,179)" stroke-linejoin="round" d="M 24599,15161 L 24599,15011"/>
 <path fill="none" stroke="rgb(179,179,179)" stroke-linejoin="round" d="M 24599,15161 L 24599,15011"/>
 <path fill="none" stroke="rgb(179,179,179)" stroke-linejoin="round" d="M 25594,15161 L 25594,15011"/>
 <path fill="none" stroke="rgb(179,179,179)" stroke-linejoin="round" d="M 25594,15161 L 25594,15011"/>
 <path fill="none" stroke="rgb(179,179,179)" stroke-linejoin="round" d="M 26589,15161 L 26589,15011"/>
 <path fill="none" stroke="rgb(179,179,179)" stroke-linejoin="round" d="M 26589,15161 L 26589,15011"/>
 <path fill="none" stroke="rgb(179,179,179)" stroke-linejoin="round" d="M 27584,15161 L 27584,15011"/>
 <path fill="none" stroke="rgb(179,179,179)" stroke-linejoin="round" d="M 27584,15161 L 27584,15011"/>
 <path fill="none" stroke="rgb(179,179,179)" stroke-linejoin="round" d="M 28580,15161 L 28580,15011"/>
 <path fill="none" stroke="rgb(179,179,179)" stroke-linejoin="round" d="M 28580,15161 L 28580,15011"/>
 <path fill="none" stroke="rgb(179,179,179)" stroke-linejoin="round" d="M 29575,15161 L 29575,15011"/>
 <path fill="none" stroke="rgb(179,179,179)" stroke-linejoin="round" d="M 29575,15161 L 29575,15011"/>
 <path fill="none" stroke="rgb(179,179,179)" stroke-linejoin="round" d="M 30570,15161 L 30570,15011"/>
 <path fill="none" stroke="rgb(179,179,179)" stroke-linejoin="round" d="M 30570,15161 L 30570,15011"/>
 <path fill="none" stroke="rgb(179,179,179)" stroke-linejoin="round" d="M 31565,15161 L 31565,15011"/>
 <path fill="none" stroke="rgb(179,179,179)" stroke-linejoin="round" d="M 31565,15161 L 31565,15011"/>
 <path fill="none" stroke="rgb(179,179,179)" stroke-linejoin="round" d="M 32561,15161 L 32561,15011"/>
 <path fill="none" stroke="rgb(179,179,179)" stroke-linejoin="round" d="M 32561,15161 L 32561,15011"/>
 <path fill="none" stroke="rgb(179,179,179)" stroke-linejoin="round" d="M 33556,15161 L 33556,15011"/>
 <path fill="none" stroke="rgb(179,179,179)" stroke-linejoin="round" d="M 33556,15161 L 33556,15011"/>
 <path fill="none" stroke="rgb(179,179,179)" stroke-linejoin="round" d="M 34551,15161 L 34551,15011"/>
 <path fill="none" stroke="rgb(179,179,179)" stroke-linejoin="round" d="M 34551,15161 L 34551,15011"/>
 <path fill="none" stroke="rgb(179,179,179)" stroke-linejoin="round" d="M 35546,15161 L 35546,15011"/>
 <path fill="none" stroke="rgb(179,179,179)" stroke-linejoin="round" d="M 35546,15161 L 35546,15011"/>
 <path fill="none" stroke="rgb(179,179,179)" stroke-linejoin="round" d="M 36542,15161 L 36542,15011"/>
 <path fill="none" stroke="rgb(179,179,179)" stroke-linejoin="round" d="M 36542,15161 L 36542,15011"/>
 <path fill="none" stroke="rgb(179,179,179)" stroke-linejoin="round" d="M 3700,15011 L 36542,15011"/>
 <path fill="none" stroke="rgb(179,179,179)" stroke-linejoin="round" d="M 3550,15011 L 3700,15011"/>
 <path fill="none" stroke="rgb(179,179,179)" stroke-linejoin="round" d="M 3550,15011 L 3700,15011"/>
 <path fill="none" stroke="rgb(179,179,179)" stroke-linejoin="round" d="M 3550,13683 L 3700,13683"/>
 <path fill="none" stroke="rgb(179,179,179)" stroke-linejoin="round" d="M 3550,13683 L 3700,13683"/>
 <path fill="none" stroke="rgb(179,179,179)" stroke-linejoin="round" d="M 3550,12355 L 3700,12355"/>
 <path fill="none" stroke="rgb(179,179,179)" stroke-linejoin="round" d="M 3550,12355 L 3700,12355"/>
 <path fill="none" stroke="rgb(179,179,179)" stroke-linejoin="round" d="M 3550,11027 L 3700,11027"/>
 <path fill="none" stroke="rgb(179,179,179)" stroke-linejoin="round" d="M 3550,11027 L 3700,11027"/>
 <path fill="none" stroke="rgb(179,179,179)" stroke-linejoin="round" d="M 3550,9699 L 3700,9699"/>
 <path fill="none" stroke="rgb(179,179,179)" stroke-linejoin="round" d="M 3550,9699 L 3700,9699"/>
 <path fill="none" stroke="rgb(179,179,179)" stroke-linejoin="round" d="M 3550,8372 L 3700,8372"/>
 <path fill="none" stroke="rgb(179,179,179)" stroke-linejoin="round" d="M 3550,8372 L 3700,8372"/>
 <path fill="none" stroke="rgb(179,179,179)" stroke-linejoin="round" d="M 3550,7044 L 3700,7044"/>
 <path fill="none" stroke="rgb(179,179,179)" stroke-linejoin="round" d="M 3550,7044 L 3700,7044"/>
 <path fill="none" stroke="rgb(179,179,179)" stroke-linejoin="round" d="M 3550,5716 L 3700,5716"/>
 <path fill="none" stroke="rgb(179,179,179)" stroke-linejoin="round" d="M 3550,5716 L 3700,5716"/>
 <path fill="none" stroke="rgb(179,179,179)" stroke-linejoin="round" d="M 3550,4388 L 3700,4388"/>
 <path fill="none" stroke="rgb(179,179,179)" stroke-linejoin="round" d="M 3550,4388 L 3700,4388"/>
 <path fill="none" stroke="rgb(179,179,179)" stroke-linejoin="round" d="M 3550,3061 L 3700,3061"/>
 <path fill="none" stroke="rgb(179,179,179)" stroke-linejoin="round" d="M 3550,3061 L 3700,3061"/>
 <path fill="none" stroke="rgb(179,179,179)" stroke-linejoin="round" d="M 3700,15011 L 3700,3061"/>
 <path fill="rgb(158,158,158)" stroke="none" d="M 35795,15011 L 36293,15011 36293,14867 35795,14867 35795,15011 Z"/>
 <path fill="rgb(158,158,158)" stroke="none" d="M 34800,15011 L 35297,15011 35297,14870 34800,14870 34800,15011 Z"/>
 <path fill="rgb(158,158,158)" stroke="none" d="M 33805,15011 L 34302,15011 34302,14917 33805,14917 33805,15011 Z"/>
 <path fill="rgb(158,158,158)" stroke="none" d="M 32809,15011 L 33307,15011 33307,14878 32809,14878 32809,15011 Z"/>
 <path fill="rgb(158,158,158)" stroke="none" d="M 31814,15011 L 32312,15011 32312,14882 31814,14882 31814,15011 Z"/>
 <path fill="rgb(158,158,158)" stroke="none" d="M 30819,15011 L 31316,15011 31316,14922 30819,14922 30819,15011 Z"/>
 <path fill="rgb(158,158,158)" stroke="none" d="M 29824,15011 L 30321,15011 30321,14886 29824,14886 29824,15011 Z"/>
 <path fill="rgb(158,158,158)" stroke="none" d="M 28828,15011 L 29326,15011 29326,14879 28828,14879 28828,15011 Z"/>
 <path fill="rgb(158,158,158)" stroke="none" d="M 27833,15011 L 28331,15011 28331,14926 27833,14926 27833,15011 Z"/>
 <path fill="rgb(158,158,158)" stroke="none" d="M 26838,15011 L 27336,15011 27336,14637 26838,14637 26838,15011 Z"/>
 <path fill="rgb(158,158,158)" stroke="none" d="M 25843,15011 L 26340,15011 26340,14917 25843,14917 25843,15011 Z"/>
 <path fill="rgb(158,158,158)" stroke="none" d="M 24847,15011 L 25345,15011 25345,14923 24847,14923 24847,15011 Z"/>
 <path fill="rgb(158,158,158)" stroke="none" d="M 23852,15011 L 24350,15011 24350,14948 23852,14948 23852,15011 Z"/>
 <path fill="rgb(158,158,158)" stroke="none" d="M 22857,15011 L 23355,15011 23355,14944 22857,14944 22857,15011 Z"/>
 <path fill="rgb(158,158,158)" stroke="none" d="M 21862,15011 L 22359,15011 22359,14939 21862,14939 21862,15011 Z"/>
 <path fill="rgb(158,158,158)" stroke="none" d="M 20866,15011 L 21364,15011 21364,14911 20866,14911 20866,15011 Z"/>
 <path fill="rgb(158,158,158)" stroke="none" d="M 19872,15011 L 20370,15011 20370,14923 19872,14923 19872,15011 Z"/>
 <path fill="rgb(158,158,158)" stroke="none" d="M 18877,15011 L 19375,15011 19375,14921 18877,14921 18877,15011 Z"/>
 <path fill="rgb(158,158,158)" stroke="none" d="M 17882,15011 L 18379,15011 18379,14898 17882,14898 17882,15011 Z"/>
 <path fill="rgb(158,158,158)" stroke="none" d="M 16886,15011 L 17384,15011 17384,14927 16886,14927 16886,15011 Z"/>
 <path fill="rgb(158,158,158)" stroke="none" d="M 15891,15011 L 16389,15011 16389,14925 15891,14925 15891,15011 Z"/>
 <path fill="rgb(158,158,158)" stroke="none" d="M 14896,15011 L 15394,15011 15394,14943 14896,14943 14896,15011 Z"/>
 <path fill="rgb(158,158,158)" stroke="none" d="M 13901,15011 L 14398,15011 14398,14976 13901,14976 13901,15011 Z"/>
 <path fill="rgb(158,158,158)" stroke="none" d="M 12905,15011 L 13403,15011 13403,14956 12905,14956 12905,15011 Z"/>
 <path fill="rgb(158,158,158)" stroke="none" d="M 11910,15011 L 12408,15011 12408,14965 11910,14965 11910,15011 Z"/>
 <path fill="rgb(158,158,158)" stroke="none" d="M 10915,15011 L 11413,15011 11413,14955 10915,14955 10915,15011 Z"/>
 <path fill="rgb(158,158,158)" stroke="none" d="M 9920,15011 L 10417,15011 10417,14847 9920,14847 9920,15011 Z"/>
 <path fill="rgb(158,158,158)" stroke="none" d="M 8925,15011 L 9422,15011 9422,14766 8925,14766 8925,15011 Z"/>
 <path fill="rgb(158,158,158)" stroke="none" d="M 7929,15011 L 8427,15011 8427,14826 7929,14826 7929,15011 Z"/>
 <path fill="rgb(158,158,158)" stroke="none" d="M 6934,15011 L 7432,15011 7432,14994 6934,14994 6934,15011 Z"/>
 <path fill="rgb(158,158,158)" stroke="none" d="M 5939,15011 L 6436,15011 6436,14995 5939,14995 5939,15011 Z"/>
 <path fill="rgb(158,158,158)" stroke="none" d="M 4944,15011 L 5441,15011 5441,14991 4944,14991 4944,15011 Z"/>
 <path fill="rgb(158,158,158)" stroke="none" d="M 3948,15011 L 4446,15011 4446,14819 3948,14819 3948,15011 Z"/>
 <path fill="rgb(255,111,0)" stroke="none" d="M 35795,14867 L 36293,14867 36293,13624 35795,13624 35795,14867 Z"/>
 <path fill="rgb(255,111,0)" stroke="none" d="M 34800,14870 L 35297,14870 35297,13124 34800,13124 34800,14870 Z"/>
 <path fill="rgb(255,111,0)" stroke="none" d="M 33805,14917 L 34302,14917 34302,14916 33805,14916 33805,14917 Z"/>
 <path fill="rgb(255,111,0)" stroke="none" d="M 32809,14878 L 33307,14878 33307,14875 32809,14875 32809,14878 Z"/>
 <path fill="rgb(255,111,0)" stroke="none" d="M 31814,14882 L 32312,14882 32312,14876 31814,14876 31814,14882 Z"/>
 <path fill="rgb(255,111,0)" stroke="none" d="M 30819,14922 L 31316,14922 31316,14921 30819,14921 30819,14922 Z"/>
 <path fill="rgb(255,111,0)" stroke="none" d="M 29824,14886 L 30321,14886 30321,14885 29824,14885 29824,14886 Z"/>
 <path fill="rgb(255,111,0)" stroke="none" d="M 28828,14879 L 29326,14879 29326,14877 28828,14877 28828,14879 Z"/>
 <path fill="rgb(255,111,0)" stroke="none" d="M 27833,14926 L 28331,14926 28331,14925 27833,14925 27833,14926 Z"/>
 <path fill="rgb(255,111,0)" stroke="none" d="M 26838,14637 L 27336,14637 27336,14636 26838,14636 26838,14637 Z"/>
 <path fill="rgb(255,111,0)" stroke="none" d="M 25843,14917 L 26340,14917 26340,14916 25843,14916 25843,14917 Z"/>
 <path fill="rgb(255,111,0)" stroke="none" d="M 24847,14923 L 25345,14923 25345,14922 24847,14922 24847,14923 Z"/>
 <path fill="rgb(255,111,0)" stroke="none" d="M 23852,14948 L 24350,14948 24350,14947 23852,14947 23852,14948 Z"/>
 <path fill="rgb(255,111,0)" stroke="none" d="M 22857,14944 L 23355,14944 23355,14944 22857,14944 Z"/>
 <path fill="rgb(255,111,0)" stroke="none" d="M 21862,14939 L 22359,14939 22359,14939 21862,14939 Z"/>
 <path fill="rgb(255,111,0)" stroke="none" d="M 20866,14911 L 21364,14911 21364,14911 20866,14911 Z"/>
 <path fill="rgb(255,111,0)" stroke="none" d="M 19872,14923 L 20370,14923 20370,14923 19872,14923 Z"/>
 <path fill="rgb(255,111,0)" stroke="none" d="M 18877,14921 L 19375,14921 19375,14921 18877,14921 Z"/>
 <path fill="rgb(255,111,0)" stroke="none" d="M 17882,14898 L 18379,14898 18379,14897 17882,14897 17882,14898 Z"/>
 <path fill="rgb(255,111,0)" stroke="none" d="M 16886,14927 L 17384,14927 17384,14927 16886,14927 Z"/>
 <path fill="rgb(255,111,0)" stroke="none" d="M 15891,14925 L 16389,14925 16389,14925 15891,14925 Z"/>
 <path fill="rgb(255,111,0)" stroke="none" d="M 14896,14943 L 15394,14943 15394,14942 14896,14942 14896,14943 Z"/>
 <path fill="rgb(255,111,0)" stroke="none" d="M 13901,14976 L 14398,14976 14398,14973 13901,14973 13901,14976 Z"/>
 <path fill="rgb(255,111,0)" stroke="none" d="M 12905,14956 L 13403,14956 13403,14955 12905,14955 12905,14956 Z"/>
 <path fill="rgb(255,111,0)" stroke="none" d="M 11910,14965 L 12408,14965 12408,14965 11910,14965 Z"/>
 <path fill="rgb(255,111,0)" stroke="none" d="M 10915,14955 L 11413,14955 11413,14955 10915,14955 Z"/>
 <path fill="rgb(255,111,0)" stroke="none" d="M 9920,14847 L 10417,14847 10417,14847 9920,14847 Z"/>
 <path fill="rgb(255,111,0)" stroke="none" d="M 8925,14766 L 9422,14766 9422,14766 8925,14766 Z"/>
 <path fill="rgb(255,111,0)" stroke="none" d="M 7929,14826 L 8427,14826 8427,14826 7929,14826 Z"/>
 <path fill="rgb(255,111,0)" stroke="none" d="M 6934,14994 L 7432,14994 7432,14994 6934,14994 Z"/>
 <path fill="rgb(255,111,0)" stroke="none" d="M 5939,14995 L 6436,14995 6436,14995 5939,14995 Z"/>
 <path fill="rgb(255,111,0)" stroke="none" d="M 4944,14991 L 5441,14991 5441,14991 4944,14991 Z"/>
 <path fill="rgb(255,111,0)" stroke="none" d="M 3948,14819 L 4446,14819 4446,14811 3948,14811 3948,14819 Z"/>
 <path fill="rgb(255,211,32)" stroke="none" d="M 35795,13624 L 36293,13624 36293,12039 35795,12039 35795,13624 Z"/>
 <path fill="rgb(255,211,32)" stroke="none" d="M 34800,13124 L 35297,13124 35297,11825 34800,11825 34800,13124 Z"/>
 <path fill="rgb(255,211,32)" stroke="none" d="M 33805,14916 L 34302,14916 34302,12904 33805,12904 33805,14916 Z"/>
 <path fill="rgb(255,211,32)" stroke="none" d="M 32809,14875 L 33307,14875 33307,13253 32809,13253 32809,14875 Z"/>
 <path fill="rgb(255,211,32)" stroke="none" d="M 31814,14876 L 32312,14876 32312,12782 31814,12782 31814,14876 Z"/>
 <path fill="rgb(255,211,32)" stroke="none" d="M 30819,14921 L 31316,14921 31316,13523 30819,13523 30819,14921 Z"/>
 <path fill="rgb(255,211,32)" stroke="none" d="M 29824,14885 L 30321,14885 30321,13188 29824,13188 29824,14885 Z"/>
 <path fill="rgb(255,211,32)" stroke="none" d="M 28828,14877 L 29326,14877 29326,13170 28828,13170 28828,14877 Z"/>
 <path fill="rgb(255,211,32)" stroke="none" d="M 27833,14925 L 28331,14925 28331,13381 27833,13381 27833,14925 Z"/>
 <path fill="rgb(255,211,32)" stroke="none" d="M 26838,14636 L 27336,14636 27336,13467 26838,13467 26838,14636 Z"/>
 <path fill="rgb(255,211,32)" stroke="none" d="M 25843,14916 L 26340,14916 26340,13611 25843,13611 25843,14916 Z"/>
 <path fill="rgb(255,211,32)" stroke="none" d="M 24847,14922 L 25345,14922 25345,13616 24847,13616 24847,14922 Z"/>
 <path fill="rgb(255,211,32)" stroke="none" d="M 23852,14947 L 24350,14947 24350,13799 23852,13799 23852,14947 Z"/>
 <path fill="rgb(255,211,32)" stroke="none" d="M 22857,14944 L 23355,14944 23355,13509 22857,13509 22857,14944 Z"/>
 <path fill="rgb(255,211,32)" stroke="none" d="M 21862,14939 L 22359,14939 22359,12677 21862,12677 21862,14939 Z"/>
 <path fill="rgb(255,211,32)" stroke="none" d="M 20866,14911 L 21364,14911 21364,12637 20866,12637 20866,14911 Z"/>
 <path fill="rgb(255,211,32)" stroke="none" d="M 19872,14923 L 20370,14923 20370,12869 19872,12869 19872,14923 Z"/>
 <path fill="rgb(255,211,32)" stroke="none" d="M 18877,14921 L 19375,14921 19375,13028 18877,13028 18877,14921 Z"/>
 <path fill="rgb(255,211,32)" stroke="none" d="M 17882,14897 L 18379,14897 18379,13050 17882,13050 17882,14897 Z"/>
 <path fill="rgb(255,211,32)" stroke="none" d="M 16886,14927 L 17384,14927 17384,13448 16886,13448 16886,14927 Z"/>
 <path fill="rgb(255,211,32)" stroke="none" d="M 15891,14925 L 16389,14925 16389,13586 15891,13586 15891,14925 Z"/>
 <path fill="rgb(255,211,32)" stroke="none" d="M 14896,14942 L 15394,14942 15394,13231 14896,13231 14896,14942 Z"/>
 <path fill="rgb(255,211,32)" stroke="none" d="M 13901,14973 L 14398,14973 14398,12964 13901,12964 13901,14973 Z"/>
 <path fill="rgb(255,211,32)" stroke="none" d="M 12905,14955 L 13403,14955 13403,12815 12905,12815 12905,14955 Z"/>
 <path fill="rgb(255,211,32)" stroke="none" d="M 11910,14965 L 12408,14965 12408,13324 11910,13324 11910,14965 Z"/>
 <path fill="rgb(255,211,32)" stroke="none" d="M 10915,14955 L 11413,14955 11413,13552 10915,13552 10915,14955 Z"/>
 <path fill="rgb(255,211,32)" stroke="none" d="M 9920,14847 L 10417,14847 10417,13497 9920,13497 9920,14847 Z"/>
 <path fill="rgb(255,211,32)" stroke="none" d="M 8925,14766 L 9422,14766 9422,12492 8925,12492 8925,14766 Z"/>
 <path fill="rgb(255,211,32)" stroke="none" d="M 7929,14826 L 8427,14826 8427,11983 7929,11983 7929,14826 Z"/>
 <path fill="rgb(255,211,32)" stroke="none" d="M 6934,14994 L 7432,14994 7432,13183 6934,13183 6934,14994 Z"/>
 <path fill="rgb(255,211,32)" stroke="none" d="M 5939,14995 L 6436,14995 6436,13292 5939,13292 5939,14995 Z"/>
 <path fill="rgb(255,211,32)" stroke="none" d="M 4944,14991 L 5441,14991 5441,13693 4944,13693 4944,14991 Z"/>
 <path fill="rgb(255,211,32)" stroke="none" d="M 3948,14811 L 4446,14811 4446,12689 3948,12689 3948,14811 Z"/>
 <path fill="rgb(109,76,65)" stroke="none" d="M 35795,12039 L 36293,12039 36293,10453 35795,10453 35795,12039 Z"/>
 <path fill="rgb(109,76,65)" stroke="none" d="M 33805,12904 L 34302,12904 34302,11505 33805,11505 33805,12904 Z"/>
 <path fill="rgb(109,76,65)" stroke="none" d="M 32809,13253 L 33307,13253 33307,11858 32809,11858 32809,13253 Z"/>
 <path fill="rgb(109,76,65)" stroke="none" d="M 31814,12782 L 32312,12782 32312,11464 31814,11464 31814,12782 Z"/>
 <path fill="rgb(109,76,65)" stroke="none" d="M 30819,13523 L 31316,13523 31316,12441 30819,12441 30819,13523 Z"/>
 <path fill="rgb(109,76,65)" stroke="none" d="M 29824,13188 L 30321,13188 30321,12032 29824,12032 29824,13188 Z"/>
 <path fill="rgb(109,76,65)" stroke="none" d="M 28828,13170 L 29326,13170 29326,12205 28828,12205 28828,13170 Z"/>
 <path fill="rgb(109,76,65)" stroke="none" d="M 27833,13381 L 28331,13381 28331,10779 27833,10779 27833,13381 Z"/>
 <path fill="rgb(109,76,65)" stroke="none" d="M 26838,13467 L 27336,13467 27336,12771 26838,12771 26838,13467 Z"/>
 <path fill="rgb(109,76,65)" stroke="none" d="M 25843,13611 L 26340,13611 26340,13065 25843,13065 25843,13611 Z"/>
 <path fill="rgb(109,76,65)" stroke="none" d="M 24847,13616 L 25345,13616 25345,13027 24847,13027 24847,13616 Z"/>
 <path fill="rgb(109,76,65)" stroke="none" d="M 23852,13799 L 24350,13799 24350,13095 23852,13095 23852,13799 Z"/>
 <path fill="rgb(109,76,65)" stroke="none" d="M 22857,13509 L 23355,13509 23355,12717 22857,12717 22857,13509 Z"/>
 <path fill="rgb(109,76,65)" stroke="none" d="M 21862,12677 L 22359,12677 22359,12123 21862,12123 21862,12677 Z"/>
 <path fill="rgb(109,76,65)" stroke="none" d="M 20866,12637 L 21364,12637 21364,12086 20866,12086 20866,12637 Z"/>
 <path fill="rgb(109,76,65)" stroke="none" d="M 19872,12869 L 20370,12869 20370,12367 19872,12367 19872,12869 Z"/>
 <path fill="rgb(109,76,65)" stroke="none" d="M 18877,13028 L 19375,13028 19375,12446 18877,12446 18877,13028 Z"/>
 <path fill="rgb(109,76,65)" stroke="none" d="M 17882,13050 L 18379,13050 18379,12231 17882,12231 17882,13050 Z"/>
 <path fill="rgb(109,76,65)" stroke="none" d="M 16886,13448 L 17384,13448 17384,12996 16886,12996 16886,13448 Z"/>
 <path fill="rgb(109,76,65)" stroke="none" d="M 15891,13586 L 16389,13586 16389,13287 15891,13287 15891,13586 Z"/>
 <path fill="rgb(109,76,65)" stroke="none" d="M 14896,13231 L 15394,13231 15394,12913 14896,12913 14896,13231 Z"/>
 <path fill="rgb(109,76,65)" stroke="none" d="M 13901,12964 L 14398,12964 14398,12628 13901,12628 13901,12964 Z"/>
 <path fill="rgb(109,76,65)" stroke="none" d="M 12905,12815 L 13403,12815 13403,12597 12905,12597 12905,12815 Z"/>
 <path fill="rgb(109,76,65)" stroke="none" d="M 11910,13324 L 12408,13324 12408,13145 11910,13145 11910,13324 Z"/>
 <path fill="rgb(109,76,65)" stroke="none" d="M 10915,13552 L 11413,13552 11413,13331 10915,13331 10915,13552 Z"/>
 <path fill="rgb(109,76,65)" stroke="none" d="M 9920,13497 L 10417,13497 10417,13331 9920,13331 9920,13497 Z"/>
 <path fill="rgb(109,76,65)" stroke="none" d="M 8925,12492 L 9422,12492 9422,12186 8925,12186 8925,12492 Z"/>
 <path fill="rgb(109,76,65)" stroke="none" d="M 7929,11983 L 8427,11983 8427,11775 7929,11775 7929,11983 Z"/>
 <path fill="rgb(109,76,65)" stroke="none" d="M 6934,13183 L 7432,13183 7432,13124 6934,13124 6934,13183 Z"/>
 <path fill="rgb(109,76,65)" stroke="none" d="M 5939,13292 L 6436,13292 6436,13253 5939,13253 5939,13292 Z"/>
 <path fill="rgb(109,76,65)" stroke="none" d="M 4944,13693 L 5441,13693 5441,13628 4944,13628 4944,13693 Z"/>
 <path fill="rgb(109,76,65)" stroke="none" d="M 3948,12689 L 4446,12689 4446,12342 3948,12342 3948,12689 Z"/>
 <path fill="rgb(52,101,164)" stroke="none" d="M 35795,10453 L 36293,10453 36293,10318 35795,10318 35795,10453 Z"/>
 <path fill="rgb(52,101,164)" stroke="none" d="M 34800,11825 L 35297,11825 35297,11527 34800,11527 34800,11825 Z"/>
 <path fill="rgb(52,101,164)" stroke="none" d="M 33805,11505 L 34302,11505 34302,11128 33805,11128 33805,11505 Z"/>
 <path fill="rgb(52,101,164)" stroke="none" d="M 32809,11858 L 33307,11858 33307,11436 32809,11436 32809,11858 Z"/>
 <path fill="rgb(52,101,164)" stroke="none" d="M 31814,11464 L 32312,11464 32312,10912 31814,10912 31814,11464 Z"/>
 <path fill="rgb(52,101,164)" stroke="none" d="M 30819,12441 L 31316,12441 31316,11821 30819,11821 30819,12441 Z"/>
 <path fill="rgb(52,101,164)" stroke="none" d="M 29824,12032 L 30321,12032 30321,11342 29824,11342 29824,12032 Z"/>
 <path fill="rgb(52,101,164)" stroke="none" d="M 28828,12205 L 29326,12205 29326,11684 28828,11684 28828,12205 Z"/>
 <path fill="rgb(52,101,164)" stroke="none" d="M 27833,10779 L 28331,10779 28331,10072 27833,10072 27833,10779 Z"/>
 <path fill="rgb(52,101,164)" stroke="none" d="M 26838,12771 L 27336,12771 27336,12163 26838,12163 26838,12771 Z"/>
 <path fill="rgb(52,101,164)" stroke="none" d="M 25843,13065 L 26340,13065 26340,12253 25843,12253 25843,13065 Z"/>
 <path fill="rgb(52,101,164)" stroke="none" d="M 24847,13027 L 25345,13027 25345,12210 24847,12210 24847,13027 Z"/>
 <path fill="rgb(52,101,164)" stroke="none" d="M 23852,13095 L 24350,13095 24350,12499 23852,12499 23852,13095 Z"/>
 <path fill="rgb(52,101,164)" stroke="none" d="M 22857,12717 L 23355,12717 23355,11947 22857,11947 22857,12717 Z"/>
 <path fill="rgb(52,101,164)" stroke="none" d="M 21862,12123 L 22359,12123 22359,11435 21862,11435 21862,12123 Z"/>
 <path fill="rgb(52,101,164)" stroke="none" d="M 20866,12086 L 21364,12086 21364,11010 20866,11010 20866,12086 Z"/>
 <path fill="rgb(52,101,164)" stroke="none" d="M 19872,12367 L 20370,12367 20370,10887 19872,10887 19872,12367 Z"/>
 <path fill="rgb(52,101,164)" stroke="none" d="M 18877,12446 L 19375,12446 19375,11244 18877,11244 18877,12446 Z"/>
 <path fill="rgb(52,101,164)" stroke="none" d="M 17882,12231 L 18379,12231 18379,11000 17882,11000 17882,12231 Z"/>
 <path fill="rgb(52,101,164)" stroke="none" d="M 16886,12996 L 17384,12996 17384,12093 16886,12093 16886,12996 Z"/>
 <path fill="rgb(52,101,164)" stroke="none" d="M 15891,13287 L 16389,13287 16389,12127 15891,12127 15891,13287 Z"/>
 <path fill="rgb(52,101,164)" stroke="none" d="M 14896,12913 L 15394,12913 15394,11769 14896,11769 14896,12913 Z"/>
 <path fill="rgb(52,101,164)" stroke="none" d="M 13901,12628 L 14398,12628 14398,11308 13901,11308 13901,12628 Z"/>
 <path fill="rgb(52,101,164)" stroke="none" d="M 12905,12597 L 13403,12597 13403,11080 12905,11080 12905,12597 Z"/>
 <path fill="rgb(52,101,164)" stroke="none" d="M 11910,13145 L 12408,13145 12408,12011 11910,12011 11910,13145 Z"/>
 <path fill="rgb(52,101,164)" stroke="none" d="M 10915,13331 L 11413,13331 11413,11770 10915,11770 10915,13331 Z"/>
 <path fill="rgb(52,101,164)" stroke="none" d="M 9920,13331 L 10417,13331 10417,12294 9920,12294 9920,13331 Z"/>
 <path fill="rgb(52,101,164)" stroke="none" d="M 8925,12186 L 9422,12186 9422,12082 8925,12082 8925,12186 Z"/>
 <path fill="rgb(52,101,164)" stroke="none" d="M 7929,11775 L 8427,11775 8427,11654 7929,11654 7929,11775 Z"/>
 <path fill="rgb(52,101,164)" stroke="none" d="M 6934,13124 L 7432,13124 7432,12648 6934,12648 6934,13124 Z"/>
 <path fill="rgb(52,101,164)" stroke="none" d="M 5939,13253 L 6436,13253 6436,13130 5939,13130 5939,13253 Z"/>
 <path fill="rgb(52,101,164)" stroke="none" d="M 4944,13628 L 5441,13628 5441,13602 4944,13602 4944,13628 Z"/>
 <path fill="rgb(52,101,164)" stroke="none" d="M 3948,12342 L 4446,12342 4446,12257 3948,12257 3948,12342 Z"/>
 <path fill="rgb(0,140,79)" stroke="none" d="M 35795,10318 L 36293,10318 36293,10052 35795,10052 35795,10318 Z"/>
 <path fill="rgb(0,140,79)" stroke="none" d="M 34800,11527 L 35297,11527 35297,11284 34800,11284 34800,11527 Z"/>
 <path fill="rgb(0,140,79)" stroke="none" d="M 33805,11128 L 34302,11128 34302,10792 33805,10792 33805,11128 Z"/>
 <path fill="rgb(0,140,79)" stroke="none" d="M 32809,11436 L 33307,11436 33307,11120 32809,11120 32809,11436 Z"/>
 <path fill="rgb(0,140,79)" stroke="none" d="M 31814,10912 L 32312,10912 32312,10364 31814,10364 31814,10912 Z"/>
 <path fill="rgb(0,140,79)" stroke="none" d="M 30819,11821 L 31316,11821 31316,10642 30819,10642 30819,11821 Z"/>
 <path fill="rgb(0,140,79)" stroke="none" d="M 29824,11342 L 30321,11342 30321,9923 29824,9923 29824,11342 Z"/>
 <path fill="rgb(0,140,79)" stroke="none" d="M 28828,11684 L 29326,11684 29326,10156 28828,10156 28828,11684 Z"/>
 <path fill="rgb(0,140,79)" stroke="none" d="M 27833,10072 L 28331,10072 28331,8334 27833,8334 27833,10072 Z"/>
 <path fill="rgb(0,140,79)" stroke="none" d="M 26838,12163 L 27336,12163 27336,10716 26838,10716 26838,12163 Z"/>
 <path fill="rgb(0,140,79)" stroke="none" d="M 25843,12253 L 26340,12253 26340,10980 25843,10980 25843,12253 Z"/>
 <path fill="rgb(0,140,79)" stroke="none" d="M 24847,12210 L 25345,12210 25345,10843 24847,10843 24847,12210 Z"/>
 <path fill="rgb(0,140,79)" stroke="none" d="M 23852,12499 L 24350,12499 24350,11890 23852,11890 23852,12499 Z"/>
 <path fill="rgb(0,140,79)" stroke="none" d="M 22857,11947 L 23355,11947 23355,10659 22857,10659 22857,11947 Z"/>
 <path fill="rgb(0,140,79)" stroke="none" d="M 21862,11435 L 22359,11435 22359,10145 21862,10145 21862,11435 Z"/>
 <path fill="rgb(0,140,79)" stroke="none" d="M 20866,11010 L 21364,11010 21364,9775 20866,9775 20866,11010 Z"/>
 <path fill="rgb(0,140,79)" stroke="none" d="M 19872,10887 L 20370,10887 20370,9737 19872,9737 19872,10887 Z"/>
 <path fill="rgb(0,140,79)" stroke="none" d="M 18877,11244 L 19375,11244 19375,9874 18877,9874 18877,11244 Z"/>
 <path fill="rgb(0,140,79)" stroke="none" d="M 17882,11000 L 18379,11000 18379,8855 17882,8855 17882,11000 Z"/>
 <path fill="rgb(0,140,79)" stroke="none" d="M 16886,12093 L 17384,12093 17384,10622 16886,10622 16886,12093 Z"/>
 <path fill="rgb(0,140,79)" stroke="none" d="M 15891,12127 L 16389,12127 16389,10277 15891,10277 15891,12127 Z"/>
 <path fill="rgb(0,140,79)" stroke="none" d="M 14896,11769 L 15394,11769 15394,10052 14896,10052 14896,11769 Z"/>
 <path fill="rgb(0,140,79)" stroke="none" d="M 13901,11308 L 14398,11308 14398,9962 13901,9962 13901,11308 Z"/>
 <path fill="rgb(0,140,79)" stroke="none" d="M 12905,11080 L 13403,11080 13403,9557 12905,9557 12905,11080 Z"/>
 <path fill="rgb(0,140,79)" stroke="none" d="M 11910,12011 L 12408,12011 12408,10361 11910,10361 11910,12011 Z"/>
 <path fill="rgb(0,140,79)" stroke="none" d="M 10915,11770 L 11413,11770 11413,10726 10915,10726 10915,11770 Z"/>
 <path fill="rgb(0,140,79)" stroke="none" d="M 9920,12294 L 10417,12294 10417,11580 9920,11580 9920,12294 Z"/>
 <path fill="rgb(0,140,79)" stroke="none" d="M 8925,12082 L 9422,12082 9422,11151 8925,11151 8925,12082 Z"/>
 <path fill="rgb(0,140,79)" stroke="none" d="M 7929,11654 L 8427,11654 8427,10570 7929,10570 7929,11654 Z"/>
 <path fill="rgb(0,140,79)" stroke="none" d="M 6934,12648 L 7432,12648 7432,11015 6934,11015 6934,12648 Z"/>
 <path fill="rgb(0,140,79)" stroke="none" d="M 5939,13130 L 6436,13130 6436,11817 5939,11817 5939,13130 Z"/>
 <path fill="rgb(0,140,79)" stroke="none" d="M 4944,13602 L 5441,13602 5441,12480 4944,12480 4944,13602 Z"/>
 <path fill="rgb(0,140,79)" stroke="none" d="M 3948,12257 L 4446,12257 4446,11539 3948,11539 3948,12257 Z"/>
 <path fill="rgb(49,64,4)" stroke="none" d="M 35795,10052 L 36293,10052 36293,10014 35795,10014 35795,10052 Z"/>
 <path fill="rgb(49,64,4)" stroke="none" d="M 34800,11284 L 35297,11284 35297,11193 34800,11193 34800,11284 Z"/>
 <path fill="rgb(49,64,4)" stroke="none" d="M 33805,10792 L 34302,10792 34302,10759 33805,10759 33805,10792 Z"/>
 <path fill="rgb(49,64,4)" stroke="none" d="M 32809,11120 L 33307,11120 33307,11109 32809,11109 32809,11120 Z"/>
 <path fill="rgb(49,64,4)" stroke="none" d="M 31814,10364 L 32312,10364 32312,10345 31814,10345 31814,10364 Z"/>
 <path fill="rgb(49,64,4)" stroke="none" d="M 30819,10642 L 31316,10642 31316,10626 30819,10626 30819,10642 Z"/>
 <path fill="rgb(49,64,4)" stroke="none" d="M 29824,9923 L 30321,9923 30321,9904 29824,9904 29824,9923 Z"/>
 <path fill="rgb(49,64,4)" stroke="none" d="M 28828,10156 L 29326,10156 29326,10128 28828,10128 28828,10156 Z"/>
 <path fill="rgb(49,64,4)" stroke="none" d="M 27833,8334 L 28331,8334 28331,8317 27833,8317 27833,8334 Z"/>
 <path fill="rgb(49,64,4)" stroke="none" d="M 26838,10716 L 27336,10716 27336,10702 26838,10702 26838,10716 Z"/>
 <path fill="rgb(49,64,4)" stroke="none" d="M 25843,10980 L 26340,10980 26340,10958 25843,10958 25843,10980 Z"/>
 <path fill="rgb(49,64,4)" stroke="none" d="M 24847,10843 L 25345,10843 25345,10826 24847,10826 24847,10843 Z"/>
 <path fill="rgb(49,64,4)" stroke="none" d="M 23852,11890 L 24350,11890 24350,11873 23852,11873 23852,11890 Z"/>
 <path fill="rgb(49,64,4)" stroke="none" d="M 22857,10659 L 23355,10659 23355,10640 22857,10640 22857,10659 Z"/>
 <path fill="rgb(49,64,4)" stroke="none" d="M 21862,10145 L 22359,10145 22359,10105 21862,10105 21862,10145 Z"/>
 <path fill="rgb(49,64,4)" stroke="none" d="M 20866,9775 L 21364,9775 21364,9746 20866,9746 20866,9775 Z"/>
 <path fill="rgb(49,64,4)" stroke="none" d="M 19872,9737 L 20370,9737 20370,9720 19872,9720 19872,9737 Z"/>
 <path fill="rgb(49,64,4)" stroke="none" d="M 18877,9874 L 19375,9874 19375,9851 18877,9851 18877,9874 Z"/>
 <path fill="rgb(49,64,4)" stroke="none" d="M 17882,8855 L 18379,8855 18379,8839 17882,8839 17882,8855 Z"/>
 <path fill="rgb(49,64,4)" stroke="none" d="M 16886,10622 L 17384,10622 17384,10604 16886,10604 16886,10622 Z"/>
 <path fill="rgb(49,64,4)" stroke="none" d="M 15891,10277 L 16389,10277 16389,9870 15891,9870 15891,10277 Z"/>
 <path fill="rgb(49,64,4)" stroke="none" d="M 14896,10052 L 15394,10052 15394,10017 14896,10017 14896,10052 Z"/>
 <path fill="rgb(49,64,4)" stroke="none" d="M 13901,9962 L 14398,9962 14398,9950 13901,9950 13901,9962 Z"/>
 <path fill="rgb(49,64,4)" stroke="none" d="M 12905,9557 L 13403,9557 13403,9539 12905,9539 12905,9557 Z"/>
 <path fill="rgb(49,64,4)" stroke="none" d="M 11910,10361 L 12408,10361 12408,10348 11910,10348 11910,10361 Z"/>
 <path fill="rgb(49,64,4)" stroke="none" d="M 10915,10726 L 11413,10726 11413,10715 10915,10715 10915,10726 Z"/>
 <path fill="rgb(49,64,4)" stroke="none" d="M 9920,11580 L 10417,11580 10417,11563 9920,11563 9920,11580 Z"/>
 <path fill="rgb(49,64,4)" stroke="none" d="M 8925,11151 L 9422,11151 9422,11125 8925,11125 8925,11151 Z"/>
 <path fill="rgb(49,64,4)" stroke="none" d="M 7929,10570 L 8427,10570 8427,10542 7929,10542 7929,10570 Z"/>
 <path fill="rgb(49,64,4)" stroke="none" d="M 6934,11015 L 7432,11015 7432,10988 6934,10988 6934,11015 Z"/>
 <path fill="rgb(49,64,4)" stroke="none" d="M 5939,11817 L 6436,11817 6436,11804 5939,11804 5939,11817 Z"/>
 <path fill="rgb(49,64,4)" stroke="none" d="M 4944,12480 L 5441,12480 5441,12449 4944,12449 4944,12480 Z"/>
 <path fill="rgb(49,64,4)" stroke="none" d="M 3948,11539 L 4446,11539 4446,11435 3948,11435 3948,11539 Z"/>
 <path fill="rgb(174,207,0)" stroke="none" d="M 22857,10640 L 23355,10640 23355,10640 22857,10640 Z"/>
 <path fill="rgb(174,207,0)" stroke="none" d="M 21862,10105 L 22359,10105 22359,10105 21862,10105 Z"/>
 <path fill="rgb(174,207,0)" stroke="none" d="M 20866,9746 L 21364,9746 21364,9746 20866,9746 Z"/>
 <path fill="rgb(174,207,0)" stroke="none" d="M 19872,9720 L 20370,9720 20370,9720 19872,9720 Z"/>
 <path fill="rgb(174,207,0)" stroke="none" d="M 18877,9851 L 19375,9851 19375,9851 18877,9851 Z"/>
 <path fill="rgb(174,207,0)" stroke="none" d="M 17882,8839 L 18379,8839 18379,8839 17882,8839 Z"/>
 <path fill="rgb(174,207,0)" stroke="none" d="M 16886,10604 L 17384,10604 17384,10604 16886,10604 Z"/>
 <path fill="rgb(174,207,0)" stroke="none" d="M 15891,9870 L 16389,9870 16389,9870 15891,9870 Z"/>
 <path fill="rgb(174,207,0)" stroke="none" d="M 14896,10017 L 15394,10017 15394,10017 14896,10017 Z"/>
 <path fill="rgb(174,207,0)" stroke="none" d="M 13901,9950 L 14398,9950 14398,9950 13901,9950 Z"/>
 <path fill="rgb(174,207,0)" stroke="none" d="M 12905,9539 L 13403,9539 13403,9538 12905,9538 12905,9539 Z"/>
 <path fill="rgb(174,207,0)" stroke="none" d="M 11910,10348 L 12408,10348 12408,10348 11910,10348 Z"/>
 <path fill="rgb(174,207,0)" stroke="none" d="M 10915,10715 L 11413,10715 11413,10715 10915,10715 Z"/>
 <path fill="rgb(174,207,0)" stroke="none" d="M 9920,11563 L 10417,11563 10417,11563 9920,11563 Z"/>
 <path fill="rgb(174,207,0)" stroke="none" d="M 8925,11125 L 9422,11125 9422,11125 8925,11125 Z"/>
 <path fill="rgb(174,207,0)" stroke="none" d="M 7929,10542 L 8427,10542 8427,10542 7929,10542 Z"/>
 <path fill="rgb(174,207,0)" stroke="none" d="M 6934,10988 L 7432,10988 7432,10988 6934,10988 Z"/>
 <path fill="rgb(174,207,0)" stroke="none" d="M 5939,11804 L 6436,11804 6436,11804 5939,11804 Z"/>
 <path fill="rgb(174,207,0)" stroke="none" d="M 4944,12449 L 5441,12449 5441,12449 4944,12449 Z"/>
 <path fill="rgb(174,207,0)" stroke="none" d="M 3948,11435 L 4446,11435 4446,11435 3948,11435 Z"/>
 <path fill="rgb(33,33,33)" stroke="none" d="M 29824,9904 L 30321,9904 30321,9296 29824,9296 29824,9904 Z"/>
 <path fill="rgb(33,33,33)" stroke="none" d="M 28828,10128 L 29326,10128 29326,8116 28828,8116 28828,10128 Z"/>
 <path fill="rgb(33,33,33)" stroke="none" d="M 27833,8317 L 28331,8317 28331,4959 27833,4959 27833,8317 Z"/>
 <path fill="rgb(33,33,33)" stroke="none" d="M 26838,10702 L 27336,10702 27336,8383 26838,8383 26838,10702 Z"/>
 <path fill="rgb(33,33,33)" stroke="none" d="M 25843,10958 L 26340,10958 26340,9707 25843,9707 25843,10958 Z"/>
 <path fill="rgb(33,33,33)" stroke="none" d="M 24847,10826 L 25345,10826 25345,9912 24847,9912 24847,10826 Z"/>
 <path fill="rgb(33,33,33)" stroke="none" d="M 23852,11873 L 24350,11873 24350,11664 23852,11664 23852,11873 Z"/>
 <path fill="rgb(33,33,33)" stroke="none" d="M 22857,10640 L 23355,10640 23355,10571 22857,10571 22857,10640 Z"/>
 <path fill="rgb(33,33,33)" stroke="none" d="M 21862,10105 L 22359,10105 22359,9826 21862,9826 21862,10105 Z"/>
 <path fill="rgb(33,33,33)" stroke="none" d="M 20866,9746 L 21364,9746 21364,9267 20866,9267 20866,9746 Z"/>
 <path fill="rgb(33,33,33)" stroke="none" d="M 19872,9720 L 20370,9720 20370,9350 19872,9350 19872,9720 Z"/>
 <path fill="rgb(33,33,33)" stroke="none" d="M 18877,9851 L 19375,9851 19375,9699 18877,9699 18877,9851 Z"/>
 <path fill="rgb(33,33,33)" stroke="none" d="M 17882,8839 L 18379,8839 18379,8776 17882,8776 17882,8839 Z"/>
 <path fill="rgb(33,33,33)" stroke="none" d="M 16886,10604 L 17384,10604 17384,10556 16886,10556 16886,10604 Z"/>
 <path fill="rgb(33,33,33)" stroke="none" d="M 15891,9870 L 16389,9870 16389,9825 15891,9825 15891,9870 Z"/>
 <path fill="rgb(33,33,33)" stroke="none" d="M 14896,10017 L 15394,10017 15394,9861 14896,9861 14896,10017 Z"/>
 <path fill="rgb(33,33,33)" stroke="none" d="M 13901,9950 L 14398,9950 14398,9728 13901,9728 13901,9950 Z"/>
 <path fill="rgb(33,33,33)" stroke="none" d="M 12905,9538 L 13403,9538 13403,9433 12905,9433 12905,9538 Z"/>
 <path fill="rgb(33,33,33)" stroke="none" d="M 11910,10348 L 12408,10348 12408,10251 11910,10251 11910,10348 Z"/>
 <path fill="rgb(33,33,33)" stroke="none" d="M 10915,10715 L 11413,10715 11413,10674 10915,10674 10915,10715 Z"/>
 <path fill="rgb(33,33,33)" stroke="none" d="M 9920,11563 L 10417,11563 10417,11519 9920,11519 9920,11563 Z"/>
 <path fill="rgb(33,33,33)" stroke="none" d="M 8925,11125 L 9422,11125 9422,11106 8925,11106 8925,11125 Z"/>
 <path fill="rgb(33,33,33)" stroke="none" d="M 7929,10542 L 8427,10542 8427,10542 7929,10542 Z"/>
 <path fill="rgb(33,33,33)" stroke="none" d="M 6934,10988 L 7432,10988 7432,10988 6934,10988 Z"/>
 <path fill="rgb(33,33,33)" stroke="none" d="M 5939,11804 L 6436,11804 6436,11804 5939,11804 Z"/>
 <path fill="rgb(33,33,33)" stroke="none" d="M 4944,12449 L 5441,12449 5441,12449 4944,12449 Z"/>
 <path fill="rgb(33,33,33)" stroke="none" d="M 3948,11435 L 4446,11435 4446,11435 3948,11435 Z"/>
 <path fill="rgb(255,149,14)" stroke="none" d="M 35795,10014 L 36293,10014 36293,10006 35795,10006 35795,10014 Z"/>
 <path fill="rgb(255,149,14)" stroke="none" d="M 34800,11193 L 35297,11193 35297,11170 34800,11170 34800,11193 Z"/>
 <path fill="rgb(255,149,14)" stroke="none" d="M 33805,10759 L 34302,10759 34302,10740 33805,10740 33805,10759 Z"/>
 <path fill="rgb(255,149,14)" stroke="none" d="M 32809,11109 L 33307,11109 33307,11104 32809,11104 32809,11109 Z"/>
 <path fill="rgb(255,149,14)" stroke="none" d="M 31814,10345 L 32312,10345 32312,10336 31814,10336 31814,10345 Z"/>
 <path fill="rgb(255,149,14)" stroke="none" d="M 30819,10626 L 31316,10626 31316,10621 30819,10621 30819,10626 Z"/>
 <path fill="rgb(255,149,14)" stroke="none" d="M 29824,9296 L 30321,9296 30321,9291 29824,9291 29824,9296 Z"/>
 <path fill="rgb(255,149,14)" stroke="none" d="M 28828,8116 L 29326,8116 29326,8105 28828,8105 28828,8116 Z"/>
 <path fill="rgb(255,149,14)" stroke="none" d="M 27833,4959 L 28331,4959 28331,4953 27833,4953 27833,4959 Z"/>
 <path fill="rgb(255,149,14)" stroke="none" d="M 26838,8383 L 27336,8383 27336,8376 26838,8376 26838,8383 Z"/>
 <path fill="rgb(255,149,14)" stroke="none" d="M 25843,9707 L 26340,9707 26340,9697 25843,9697 25843,9707 Z"/>
 <path fill="rgb(255,149,14)" stroke="none" d="M 24847,9912 L 25345,9912 25345,9902 24847,9902 24847,9912 Z"/>
 <path fill="rgb(255,149,14)" stroke="none" d="M 23852,11664 L 24350,11664 24350,11651 23852,11651 23852,11664 Z"/>
 <path fill="rgb(255,149,14)" stroke="none" d="M 22857,10571 L 23355,10571 23355,10560 22857,10560 22857,10571 Z"/>
 <path fill="rgb(255,149,14)" stroke="none" d="M 21862,9826 L 22359,9826 22359,9817 21862,9817 21862,9826 Z"/>
 <path fill="rgb(255,149,14)" stroke="none" d="M 20866,9267 L 21364,9267 21364,9252 20866,9252 20866,9267 Z"/>
 <path fill="rgb(255,149,14)" stroke="none" d="M 19872,9350 L 20370,9350 20370,9338 19872,9338 19872,9350 Z"/>
 <path fill="rgb(255,149,14)" stroke="none" d="M 18877,9699 L 19375,9699 19375,9687 18877,9687 18877,9699 Z"/>
 <path fill="rgb(255,149,14)" stroke="none" d="M 17882,8776 L 18379,8776 18379,8763 17882,8763 17882,8776 Z"/>
 <path fill="rgb(255,149,14)" stroke="none" d="M 16886,10556 L 17384,10556 17384,10549 16886,10549 16886,10556 Z"/>
 <path fill="rgb(255,149,14)" stroke="none" d="M 15891,9825 L 16389,9825 16389,9814 15891,9814 15891,9825 Z"/>
 <path fill="rgb(255,149,14)" stroke="none" d="M 14896,9861 L 15394,9861 15394,9855 14896,9855 14896,9861 Z"/>
 <path fill="rgb(255,149,14)" stroke="none" d="M 13901,9728 L 14398,9728 14398,9538 13901,9538 13901,9728 Z"/>
 <path fill="rgb(255,149,14)" stroke="none" d="M 12905,9433 L 13403,9433 13403,9406 12905,9406 12905,9433 Z"/>
 <path fill="rgb(255,149,14)" stroke="none" d="M 11910,10251 L 12408,10251 12408,10233 11910,10233 11910,10251 Z"/>
 <path fill="rgb(255,149,14)" stroke="none" d="M 10915,10674 L 11413,10674 11413,10631 10915,10631 10915,10674 Z"/>
 <path fill="rgb(255,149,14)" stroke="none" d="M 9920,11519 L 10417,11519 10417,11470 9920,11470 9920,11519 Z"/>
 <path fill="rgb(255,149,14)" stroke="none" d="M 8925,11106 L 9422,11106 9422,11033 8925,11033 8925,11106 Z"/>
 <path fill="rgb(255,149,14)" stroke="none" d="M 7929,10542 L 8427,10542 8427,10454 7929,10454 7929,10542 Z"/>
 <path fill="rgb(255,149,14)" stroke="none" d="M 6934,10988 L 7432,10988 7432,10908 6934,10908 6934,10988 Z"/>
 <path fill="rgb(255,149,14)" stroke="none" d="M 5939,11804 L 6436,11804 6436,11736 5939,11736 5939,11804 Z"/>
 <path fill="rgb(255,149,14)" stroke="none" d="M 4944,12449 L 5441,12449 5441,12407 4944,12407 4944,12449 Z"/>
 <path fill="rgb(255,149,14)" stroke="none" d="M 3948,11435 L 4446,11435 4446,11408 3948,11408 3948,11435 Z"/>
 <path fill="rgb(197,0,11)" stroke="none" d="M 16886,10549 L 17384,10549 17384,10548 16886,10548 16886,10549 Z"/>
 <path fill="rgb(197,0,11)" stroke="none" d="M 15891,9814 L 16389,9814 16389,9813 15891,9813 15891,9814 Z"/>
 <path fill="rgb(197,0,11)" stroke="none" d="M 14896,9855 L 15394,9855 15394,9855 14896,9855 Z"/>
 <path fill="rgb(197,0,11)" stroke="none" d="M 13901,9538 L 14398,9538 14398,9536 13901,9536 13901,9538 Z"/>
 <path fill="rgb(197,0,11)" stroke="none" d="M 12905,9406 L 13403,9406 13403,9405 12905,9405 12905,9406 Z"/>
 <path fill="rgb(197,0,11)" stroke="none" d="M 11910,10233 L 12408,10233 12408,10231 11910,10231 11910,10233 Z"/>
 <path fill="rgb(197,0,11)" stroke="none" d="M 10915,10631 L 11413,10631 11413,10628 10915,10628 10915,10631 Z"/>
 <path fill="rgb(197,0,11)" stroke="none" d="M 9920,11470 L 10417,11470 10417,11469 9920,11469 9920,11470 Z"/>
 <path fill="rgb(197,0,11)" stroke="none" d="M 8925,11033 L 9422,11033 9422,11032 8925,11032 8925,11033 Z"/>
 <path fill="rgb(197,0,11)" stroke="none" d="M 7929,10454 L 8427,10454 8427,10454 7929,10454 Z"/>
 <path fill="rgb(197,0,11)" stroke="none" d="M 6934,10908 L 7432,10908 7432,10908 6934,10908 Z"/>
 <path fill="rgb(197,0,11)" stroke="none" d="M 5939,11736 L 6436,11736 6436,11736 5939,11736 Z"/>
 <path fill="rgb(197,0,11)" stroke="none" d="M 4944,12407 L 5441,12407 5441,12407 4944,12407 Z"/>
 <path fill="rgb(197,0,11)" stroke="none" d="M 3948,11408 L 4446,11408 4446,11405 3948,11405 3948,11408 Z"/>
 <path fill="rgb(0,132,209)" stroke="none" d="M 22857,10560 L 23355,10560 23355,10399 22857,10399 22857,10560 Z"/>
 <path fill="rgb(0,132,209)" stroke="none" d="M 21862,9817 L 22359,9817 22359,9692 21862,9692 21862,9817 Z"/>
 <path fill="rgb(0,132,209)" stroke="none" d="M 20866,9252 L 21364,9252 21364,9077 20866,9077 20866,9252 Z"/>
 <path fill="rgb(0,132,209)" stroke="none" d="M 19872,9338 L 20370,9338 20370,9160 19872,9160 19872,9338 Z"/>
 <path fill="rgb(0,132,209)" stroke="none" d="M 18877,9687 L 19375,9687 19375,9440 18877,9440 18877,9687 Z"/>
 <path fill="rgb(0,132,209)" stroke="none" d="M 17882,8763 L 18379,8763 18379,8481 17882,8481 17882,8763 Z"/>
 <path fill="rgb(0,132,209)" stroke="none" d="M 16886,10548 L 17384,10548 17384,10201 16886,10201 16886,10548 Z"/>
 <path fill="rgb(0,132,209)" stroke="none" d="M 15891,9813 L 16389,9813 16389,9405 15891,9405 15891,9813 Z"/>
 <path fill="rgb(0,132,209)" stroke="none" d="M 14896,9855 L 15394,9855 15394,9422 14896,9422 14896,9855 Z"/>
 <path fill="rgb(0,132,209)" stroke="none" d="M 13901,9536 L 14398,9536 14398,9170 13901,9170 13901,9536 Z"/>
 <path fill="rgb(0,132,209)" stroke="none" d="M 12905,9405 L 13403,9405 13403,9067 12905,9067 12905,9405 Z"/>
 <path fill="rgb(0,132,209)" stroke="none" d="M 11910,10231 L 12408,10231 12408,9910 11910,9910 11910,10231 Z"/>
 <path fill="rgb(0,132,209)" stroke="none" d="M 10915,10628 L 11413,10628 11413,10386 10915,10386 10915,10628 Z"/>
 <path fill="rgb(0,132,209)" stroke="none" d="M 9920,11469 L 10417,11469 10417,11127 9920,11127 9920,11469 Z"/>
 <path fill="rgb(0,132,209)" stroke="none" d="M 8925,11032 L 9422,11032 9422,10656 8925,10656 8925,11032 Z"/>
 <path fill="rgb(0,132,209)" stroke="none" d="M 7929,10454 L 8427,10454 8427,10040 7929,10040 7929,10454 Z"/>
 <path fill="rgb(0,132,209)" stroke="none" d="M 6934,10908 L 7432,10908 7432,10065 6934,10065 6934,10908 Z"/>
 <path fill="rgb(0,132,209)" stroke="none" d="M 5939,11736 L 6436,11736 6436,11158 5939,11158 5939,11736 Z"/>
 <path fill="rgb(0,132,209)" stroke="none" d="M 4944,12407 L 5441,12407 5441,12171 4944,12171 4944,12407 Z"/>
 <path fill="rgb(0,132,209)" stroke="none" d="M 3948,11405 L 4446,11405 4446,11348 3948,11348 3948,11405 Z"/>
 <path fill="rgb(0,69,134)" stroke="none" d="M 35795,10006 L 36293,10006 36293,9991 35795,9991 35795,10006 Z"/>
 <path fill="rgb(0,69,134)" stroke="none" d="M 34800,11170 L 35297,11170 35297,11139 34800,11139 34800,11170 Z"/>
 <path fill="rgb(0,69,134)" stroke="none" d="M 33805,10740 L 34302,10740 34302,10704 33805,10704 33805,10740 Z"/>
 <path fill="rgb(0,69,134)" stroke="none" d="M 32809,11104 L 33307,11104 33307,11073 32809,11073 32809,11104 Z"/>
 <path fill="rgb(0,69,134)" stroke="none" d="M 31814,10336 L 32312,10336 32312,10305 31814,10305 31814,10336 Z"/>
 <path fill="rgb(0,69,134)" stroke="none" d="M 30819,10621 L 31316,10621 31316,10595 30819,10595 30819,10621 Z"/>
 <path fill="rgb(0,69,134)" stroke="none" d="M 29824,9291 L 30321,9291 30321,9261 29824,9261 29824,9291 Z"/>
 <path fill="rgb(0,69,134)" stroke="none" d="M 28828,8105 L 29326,8105 29326,8065 28828,8065 28828,8105 Z"/>
 <path fill="rgb(0,69,134)" stroke="none" d="M 27833,4953 L 28331,4953 28331,4911 27833,4911 27833,4953 Z"/>
 <path fill="rgb(0,69,134)" stroke="none" d="M 26838,8376 L 27336,8376 27336,8346 26838,8346 26838,8376 Z"/>
 <path fill="rgb(0,69,134)" stroke="none" d="M 25843,9697 L 26340,9697 26340,9667 25843,9667 25843,9697 Z"/>
 <path fill="rgb(0,69,134)" stroke="none" d="M 24847,9902 L 25345,9902 25345,9866 24847,9866 24847,9902 Z"/>
 <path fill="rgb(0,69,134)" stroke="none" d="M 23852,11651 L 24350,11651 24350,11608 23852,11608 23852,11651 Z"/>
 <path fill="rgb(0,69,134)" stroke="none" d="M 22857,10399 L 23355,10399 23355,10351 22857,10351 22857,10399 Z"/>
 <path fill="rgb(0,69,134)" stroke="none" d="M 21862,9692 L 22359,9692 22359,9633 21862,9633 21862,9692 Z"/>
 <path fill="rgb(0,69,134)" stroke="none" d="M 20866,9077 L 21364,9077 21364,8976 20866,8976 20866,9077 Z"/>
 <path fill="rgb(0,69,134)" stroke="none" d="M 19872,9160 L 20370,9160 20370,9059 19872,9059 19872,9160 Z"/>
 <path fill="rgb(0,69,134)" stroke="none" d="M 18877,9440 L 19375,9440 19375,9126 18877,9126 18877,9440 Z"/>
 <path fill="rgb(0,69,134)" stroke="none" d="M 17882,8481 L 18379,8481 18379,8296 17882,8296 17882,8481 Z"/>
 <path fill="rgb(0,69,134)" stroke="none" d="M 16886,10201 L 17384,10201 17384,10110 16886,10110 16886,10201 Z"/>
 <path fill="rgb(0,69,134)" stroke="none" d="M 15891,9405 L 16389,9405 16389,9340 15891,9340 15891,9405 Z"/>
 <path fill="rgb(0,69,134)" stroke="none" d="M 14896,9422 L 15394,9422 15394,9390 14896,9390 14896,9422 Z"/>
 <path fill="rgb(0,69,134)" stroke="none" d="M 13901,9170 L 14398,9170 14398,9158 13901,9158 13901,9170 Z"/>
 <path fill="rgb(0,69,134)" stroke="none" d="M 12905,9067 L 13403,9067 13403,9031 12905,9031 12905,9067 Z"/>
 <path fill="rgb(0,69,134)" stroke="none" d="M 11910,9910 L 12408,9910 12408,9818 11910,9818 11910,9910 Z"/>
 <path fill="rgb(0,69,134)" stroke="none" d="M 10915,10386 L 11413,10386 11413,10303 10915,10303 10915,10386 Z"/>
 <path fill="rgb(0,69,134)" stroke="none" d="M 9920,11127 L 10417,11127 10417,11112 9920,11112 9920,11127 Z"/>
 <path fill="rgb(0,69,134)" stroke="none" d="M 8925,10656 L 9422,10656 9422,10644 8925,10644 8925,10656 Z"/>
 <path fill="rgb(0,69,134)" stroke="none" d="M 7929,10040 L 8427,10040 8427,10012 7929,10012 7929,10040 Z"/>
 <path fill="rgb(0,69,134)" stroke="none" d="M 6934,10065 L 7432,10065 7432,10026 6934,10026 6934,10065 Z"/>
 <path fill="rgb(0,69,134)" stroke="none" d="M 5939,11158 L 6436,11158 6436,11145 5939,11145 5939,11158 Z"/>
 <path fill="rgb(0,69,134)" stroke="none" d="M 4944,12171 L 5441,12171 5441,12155 4944,12155 4944,12171 Z"/>
 <path fill="rgb(0,69,134)" stroke="none" d="M 3948,11348 L 4446,11348 4446,11291 3948,11291 3948,11348 Z"/>
 <path fill="rgb(255,66,14)" stroke="none" d="M 35795,9991 L 36293,9991 36293,9965 35795,9965 35795,9991 Z"/>
 <path fill="rgb(255,66,14)" stroke="none" d="M 34800,11139 L 35297,11139 35297,11064 34800,11064 34800,11139 Z"/>
 <path fill="rgb(255,66,14)" stroke="none" d="M 33805,10704 L 34302,10704 34302,10667 33805,10667 33805,10704 Z"/>
 <path fill="rgb(255,66,14)" stroke="none" d="M 32809,11073 L 33307,11073 33307,11040 32809,11040 32809,11073 Z"/>
 <path fill="rgb(255,66,14)" stroke="none" d="M 31814,10305 L 32312,10305 32312,10236 31814,10236 31814,10305 Z"/>
 <path fill="rgb(255,66,14)" stroke="none" d="M 30819,10595 L 31316,10595 31316,10539 30819,10539 30819,10595 Z"/>
 <path fill="rgb(255,66,14)" stroke="none" d="M 29824,9261 L 30321,9261 30321,9194 29824,9194 29824,9261 Z"/>
 <path fill="rgb(255,66,14)" stroke="none" d="M 28828,8065 L 29326,8065 29326,7953 28828,7953 28828,8065 Z"/>
 <path fill="rgb(255,66,14)" stroke="none" d="M 27833,4911 L 28331,4911 28331,4861 27833,4861 27833,4911 Z"/>
 <path fill="rgb(255,66,14)" stroke="none" d="M 26838,8346 L 27336,8346 27336,8315 26838,8315 26838,8346 Z"/>
 <path fill="rgb(255,66,14)" stroke="none" d="M 25843,9667 L 26340,9667 26340,9608 25843,9608 25843,9667 Z"/>
 <path fill="rgb(255,66,14)" stroke="none" d="M 24847,9866 L 25345,9866 25345,9764 24847,9764 24847,9866 Z"/>
 <path fill="rgb(255,66,14)" stroke="none" d="M 23852,11608 L 24350,11608 24350,11575 23852,11575 23852,11608 Z"/>
 <path fill="rgb(255,66,14)" stroke="none" d="M 22857,10351 L 23355,10351 23355,10257 22857,10257 22857,10351 Z"/>
 <path fill="rgb(255,66,14)" stroke="none" d="M 21862,9633 L 22359,9633 22359,9529 21862,9529 21862,9633 Z"/>
 <path fill="rgb(255,66,14)" stroke="none" d="M 20866,8976 L 21364,8976 21364,8881 20866,8881 20866,8976 Z"/>
 <path fill="rgb(255,66,14)" stroke="none" d="M 19872,9059 L 20370,9059 20370,8894 19872,8894 19872,9059 Z"/>
 <path fill="rgb(255,66,14)" stroke="none" d="M 18877,9126 L 19375,9126 19375,8970 18877,8970 18877,9126 Z"/>
 <path fill="rgb(255,66,14)" stroke="none" d="M 17882,8296 L 18379,8296 18379,8071 17882,8071 17882,8296 Z"/>
 <path fill="rgb(255,66,14)" stroke="none" d="M 16886,10110 L 17384,10110 17384,9981 16886,9981 16886,10110 Z"/>
 <path fill="rgb(255,66,14)" stroke="none" d="M 15891,9340 L 16389,9340 16389,9183 15891,9183 15891,9340 Z"/>
 <path fill="rgb(255,66,14)" stroke="none" d="M 14896,9390 L 15394,9390 15394,9284 14896,9284 14896,9390 Z"/>
 <path fill="rgb(255,66,14)" stroke="none" d="M 13901,9158 L 14398,9158 14398,9088 13901,9088 13901,9158 Z"/>
 <path fill="rgb(255,66,14)" stroke="none" d="M 12905,9031 L 13403,9031 13403,8994 12905,8994 12905,9031 Z"/>
 <path fill="rgb(255,66,14)" stroke="none" d="M 11910,9818 L 12408,9818 12408,9788 11910,9788 11910,9818 Z"/>
 <path fill="rgb(255,66,14)" stroke="none" d="M 10915,10303 L 11413,10303 11413,10139 10915,10139 10915,10303 Z"/>
 <path fill="rgb(255,66,14)" stroke="none" d="M 9920,11112 L 10417,11112 10417,11087 9920,11087 9920,11112 Z"/>
 <path fill="rgb(255,66,14)" stroke="none" d="M 8925,10644 L 9422,10644 9422,10608 8925,10608 8925,10644 Z"/>
 <path fill="rgb(255,66,14)" stroke="none" d="M 7929,10012 L 8427,10012 8427,10005 7929,10005 7929,10012 Z"/>
 <path fill="rgb(255,66,14)" stroke="none" d="M 6934,10026 L 7432,10026 7432,10012 6934,10012 6934,10026 Z"/>
 <path fill="rgb(255,66,14)" stroke="none" d="M 5939,11145 L 6436,11145 6436,11133 5939,11133 5939,11145 Z"/>
 <path fill="rgb(255,66,14)" stroke="none" d="M 4944,12155 L 5441,12155 5441,12148 4944,12148 4944,12155 Z"/>
 <path fill="rgb(255,66,14)" stroke="none" d="M 3948,11291 L 4446,11291 4446,11255 3948,11255 3948,11291 Z"/>
 <path fill="rgb(255,211,32)" stroke="none" d="M 35795,9965 L 36293,9965 36293,9361 35795,9361 35795,9965 Z"/>
 <path fill="rgb(255,211,32)" stroke="none" d="M 34800,11064 L 35297,11064 35297,9955 34800,9955 34800,11064 Z"/>
 <path fill="rgb(255,211,32)" stroke="none" d="M 33805,10667 L 34302,10667 34302,9960 33805,9960 33805,10667 Z"/>
 <path fill="rgb(255,211,32)" stroke="none" d="M 32809,11040 L 33307,11040 33307,10709 32809,10709 32809,11040 Z"/>
 <path fill="rgb(255,211,32)" stroke="none" d="M 31814,10236 L 32312,10236 32312,9907 31814,9907 31814,10236 Z"/>
 <path fill="rgb(255,211,32)" stroke="none" d="M 30819,10539 L 31316,10539 31316,10206 30819,10206 30819,10539 Z"/>
 <path fill="rgb(255,211,32)" stroke="none" d="M 29824,9194 L 30321,9194 30321,8843 29824,8843 29824,9194 Z"/>
 <path fill="rgb(255,211,32)" stroke="none" d="M 28828,7953 L 29326,7953 29326,7667 28828,7667 28828,7953 Z"/>
 <path fill="rgb(255,211,32)" stroke="none" d="M 27833,4861 L 28331,4861 28331,4694 27833,4694 27833,4861 Z"/>
 <path fill="rgb(255,211,32)" stroke="none" d="M 26838,8315 L 27336,8315 27336,8191 26838,8191 26838,8315 Z"/>
 <path fill="rgb(255,211,32)" stroke="none" d="M 25843,9608 L 26340,9608 26340,9457 25843,9457 25843,9608 Z"/>
 <path fill="rgb(255,211,32)" stroke="none" d="M 24847,9764 L 25345,9764 25345,9565 24847,9565 24847,9764 Z"/>
 <path fill="rgb(255,211,32)" stroke="none" d="M 23852,11575 L 24350,11575 24350,11435 23852,11435 23852,11575 Z"/>
 <path fill="rgb(255,211,32)" stroke="none" d="M 22857,10257 L 23355,10257 23355,10116 22857,10116 22857,10257 Z"/>
 <path fill="rgb(255,211,32)" stroke="none" d="M 21862,9529 L 22359,9529 22359,9334 21862,9334 21862,9529 Z"/>
 <path fill="rgb(255,211,32)" stroke="none" d="M 20866,8881 L 21364,8881 21364,8712 20866,8712 20866,8881 Z"/>
 <path fill="rgb(255,211,32)" stroke="none" d="M 19872,8894 L 20370,8894 20370,8820 19872,8820 19872,8894 Z"/>
 <path fill="rgb(255,211,32)" stroke="none" d="M 18877,8970 L 19375,8970 19375,8954 18877,8954 18877,8970 Z"/>
 <path fill="rgb(255,211,32)" stroke="none" d="M 17882,8071 L 18379,8071 18379,8050 17882,8050 17882,8071 Z"/>
 <path fill="rgb(255,211,32)" stroke="none" d="M 16886,9981 L 17384,9981 17384,9962 16886,9962 16886,9981 Z"/>
 <path fill="rgb(255,211,32)" stroke="none" d="M 15891,9183 L 16389,9183 16389,9152 15891,9152 15891,9183 Z"/>
 <path fill="rgb(255,211,32)" stroke="none" d="M 14896,9284 L 15394,9284 15394,9276 14896,9276 14896,9284 Z"/>
 <path fill="rgb(255,211,32)" stroke="none" d="M 13901,9088 L 14398,9088 14398,9084 13901,9084 13901,9088 Z"/>
 <path fill="rgb(255,211,32)" stroke="none" d="M 12905,8994 L 13403,8994 13403,8991 12905,8991 12905,8994 Z"/>
 <path fill="rgb(255,211,32)" stroke="none" d="M 11910,9788 L 12408,9788 12408,9787 11910,9787 11910,9788 Z"/>
 <path fill="rgb(255,211,32)" stroke="none" d="M 10915,10139 L 11413,10139 11413,10138 10915,10138 10915,10139 Z"/>
 <path fill="rgb(255,211,32)" stroke="none" d="M 9920,11087 L 10417,11087 10417,11086 9920,11086 9920,11087 Z"/>
 <path fill="rgb(255,211,32)" stroke="none" d="M 8925,10608 L 9422,10608 9422,10604 8925,10604 8925,10608 Z"/>
 <path fill="rgb(255,211,32)" stroke="none" d="M 7929,10005 L 8427,10005 8427,9517 7929,9517 7929,10005 Z"/>
 <path fill="rgb(255,211,32)" stroke="none" d="M 6934,10012 L 7432,10012 7432,9982 6934,9982 6934,10012 Z"/>
 <path fill="rgb(255,211,32)" stroke="none" d="M 5939,11133 L 6436,11133 6436,11100 5939,11100 5939,11133 Z"/>
 <path fill="rgb(255,211,32)" stroke="none" d="M 4944,12148 L 5441,12148 5441,12116 4944,12116 4944,12148 Z"/>
 <path fill="rgb(255,211,32)" stroke="none" d="M 3948,11255 L 4446,11255 4446,10990 3948,10990 3948,11255 Z"/>
 <path fill="rgb(87,157,28)" stroke="none" d="M 35795,9361 L 36293,9361 36293,9286 35795,9286 35795,9361 Z"/>
 <path fill="rgb(87,157,28)" stroke="none" d="M 34800,9955 L 35297,9955 35297,9900 34800,9900 34800,9955 Z"/>
 <path fill="rgb(87,157,28)" stroke="none" d="M 33805,9960 L 34302,9960 34302,9919 33805,9919 33805,9960 Z"/>
 <path fill="rgb(87,157,28)" stroke="none" d="M 32809,10709 L 33307,10709 33307,10663 32809,10663 32809,10709 Z"/>
 <path fill="rgb(87,157,28)" stroke="none" d="M 31814,9907 L 32312,9907 32312,9834 31814,9834 31814,9907 Z"/>
 <path fill="rgb(87,157,28)" stroke="none" d="M 30819,10206 L 31316,10206 31316,10111 30819,10111 30819,10206 Z"/>
 <path fill="rgb(87,157,28)" stroke="none" d="M 29824,8843 L 30321,8843 30321,8761 29824,8761 29824,8843 Z"/>
 <path fill="rgb(87,157,28)" stroke="none" d="M 28828,7667 L 29326,7667 29326,7591 28828,7591 28828,7667 Z"/>
 <path fill="rgb(87,157,28)" stroke="none" d="M 27833,4694 L 28331,4694 28331,4655 27833,4655 27833,4694 Z"/>
 <path fill="rgb(87,157,28)" stroke="none" d="M 26838,8191 L 27336,8191 27336,8158 26838,8158 26838,8191 Z"/>
 <path fill="rgb(87,157,28)" stroke="none" d="M 25843,9457 L 26340,9457 26340,9409 25843,9409 25843,9457 Z"/>
 <path fill="rgb(87,157,28)" stroke="none" d="M 24847,9565 L 25345,9565 25345,9509 24847,9509 24847,9565 Z"/>
 <path fill="rgb(87,157,28)" stroke="none" d="M 23852,11435 L 24350,11435 24350,11352 23852,11352 23852,11435 Z"/>
 <path fill="rgb(87,157,28)" stroke="none" d="M 22857,10116 L 23355,10116 23355,10054 22857,10054 22857,10116 Z"/>
 <path fill="rgb(87,157,28)" stroke="none" d="M 21862,9334 L 22359,9334 22359,9263 21862,9263 21862,9334 Z"/>
 <path fill="rgb(87,157,28)" stroke="none" d="M 20866,8712 L 21364,8712 21364,8583 20866,8583 20866,8712 Z"/>
 <path fill="rgb(87,157,28)" stroke="none" d="M 19872,8820 L 20370,8820 20370,8665 19872,8665 19872,8820 Z"/>
 <path fill="rgb(87,157,28)" stroke="none" d="M 18877,8954 L 19375,8954 19375,8852 18877,8852 18877,8954 Z"/>
 <path fill="rgb(87,157,28)" stroke="none" d="M 17882,8050 L 18379,8050 18379,7982 17882,7982 17882,8050 Z"/>
 <path fill="rgb(87,157,28)" stroke="none" d="M 16886,9962 L 17384,9962 17384,9913 16886,9913 16886,9962 Z"/>
 <path fill="rgb(87,157,28)" stroke="none" d="M 15891,9152 L 16389,9152 16389,9081 15891,9081 15891,9152 Z"/>
 <path fill="rgb(87,157,28)" stroke="none" d="M 14896,9276 L 15394,9276 15394,9223 14896,9223 14896,9276 Z"/>
 <path fill="rgb(87,157,28)" stroke="none" d="M 13901,9084 L 14398,9084 14398,9038 13901,9038 13901,9084 Z"/>
 <path fill="rgb(87,157,28)" stroke="none" d="M 12905,8991 L 13403,8991 13403,8943 12905,8943 12905,8991 Z"/>
 <path fill="rgb(87,157,28)" stroke="none" d="M 11910,9787 L 12408,9787 12408,9762 11910,9762 11910,9787 Z"/>
 <path fill="rgb(87,157,28)" stroke="none" d="M 10915,10138 L 11413,10138 11413,10113 10915,10113 10915,10138 Z"/>
 <path fill="rgb(87,157,28)" stroke="none" d="M 9920,11086 L 10417,11086 10417,11071 9920,11071 9920,11086 Z"/>
 <path fill="rgb(87,157,28)" stroke="none" d="M 8925,10604 L 9422,10604 9422,10597 8925,10597 8925,10604 Z"/>
 <path fill="rgb(87,157,28)" stroke="none" d="M 7929,9517 L 8427,9517 8427,9511 7929,9511 7929,9517 Z"/>
 <path fill="rgb(87,157,28)" stroke="none" d="M 6934,9982 L 7432,9982 7432,9981 6934,9981 6934,9982 Z"/>
 <path fill="rgb(87,157,28)" stroke="none" d="M 5939,11100 L 6436,11100 6436,11098 5939,11098 5939,11100 Z"/>
 <path fill="rgb(87,157,28)" stroke="none" d="M 4944,12116 L 5441,12116 5441,12115 4944,12115 4944,12116 Z"/>
 <path fill="rgb(87,157,28)" stroke="none" d="M 3948,10990 L 4446,10990 4446,10956 3948,10956 3948,10990 Z"/>
 <path fill="rgb(205,220,57)" stroke="none" d="M 35795,9286 L 36293,9286 36293,9240 35795,9240 35795,9286 Z"/>
 <path fill="rgb(205,220,57)" stroke="none" d="M 34800,9900 L 35297,9900 35297,9810 34800,9810 34800,9900 Z"/>
 <path fill="rgb(205,220,57)" stroke="none" d="M 33805,9919 L 34302,9919 34302,9810 33805,9810 33805,9919 Z"/>
 <path fill="rgb(205,220,57)" stroke="none" d="M 32809,10663 L 33307,10663 33307,10441 32809,10441 32809,10663 Z"/>
 <path fill="rgb(205,220,57)" stroke="none" d="M 31814,9834 L 32312,9834 32312,9644 31814,9644 31814,9834 Z"/>
 <path fill="rgb(205,220,57)" stroke="none" d="M 30819,10111 L 31316,10111 31316,9972 30819,9972 30819,10111 Z"/>
 <path fill="rgb(205,220,57)" stroke="none" d="M 29824,8761 L 30321,8761 30321,8623 29824,8623 29824,8761 Z"/>
 <path fill="rgb(205,220,57)" stroke="none" d="M 28828,7591 L 29326,7591 29326,7516 28828,7516 28828,7591 Z"/>
 <path fill="rgb(205,220,57)" stroke="none" d="M 27833,4655 L 28331,4655 28331,4607 27833,4607 27833,4655 Z"/>
 <path fill="rgb(205,220,57)" stroke="none" d="M 26838,8158 L 27336,8158 27336,8116 26838,8116 26838,8158 Z"/>
 <path fill="rgb(205,220,57)" stroke="none" d="M 25843,9409 L 26340,9409 26340,9365 25843,9365 25843,9409 Z"/>
 <path fill="rgb(205,220,57)" stroke="none" d="M 24847,9509 L 25345,9509 25345,9470 24847,9470 24847,9509 Z"/>
 <path fill="rgb(205,220,57)" stroke="none" d="M 23852,11352 L 24350,11352 24350,11321 23852,11321 23852,11352 Z"/>
 <path fill="rgb(205,220,57)" stroke="none" d="M 22857,10054 L 23355,10054 23355,10014 22857,10014 22857,10054 Z"/>
 <path fill="rgb(205,220,57)" stroke="none" d="M 21862,9263 L 22359,9263 22359,9220 21862,9220 21862,9263 Z"/>
 <path fill="rgb(205,220,57)" stroke="none" d="M 20866,8583 L 21364,8583 21364,8517 20866,8517 20866,8583 Z"/>
 <path fill="rgb(205,220,57)" stroke="none" d="M 19872,8665 L 20370,8665 20370,8619 19872,8619 19872,8665 Z"/>
 <path fill="rgb(205,220,57)" stroke="none" d="M 18877,8852 L 19375,8852 19375,8804 18877,8804 18877,8852 Z"/>
 <path fill="rgb(205,220,57)" stroke="none" d="M 17882,7982 L 18379,7982 18379,7917 17882,7917 17882,7982 Z"/>
 <path fill="rgb(205,220,57)" stroke="none" d="M 16886,9913 L 17384,9913 17384,9829 16886,9829 16886,9913 Z"/>
 <path fill="rgb(205,220,57)" stroke="none" d="M 15891,9081 L 16389,9081 16389,9025 15891,9025 15891,9081 Z"/>
 <path fill="rgb(205,220,57)" stroke="none" d="M 14896,9223 L 15394,9223 15394,8886 14896,8886 14896,9223 Z"/>
 <path fill="rgb(205,220,57)" stroke="none" d="M 13901,9038 L 14398,9038 14398,8871 13901,8871 13901,9038 Z"/>
 <path fill="rgb(205,220,57)" stroke="none" d="M 12905,8943 L 13403,8943 13403,8861 12905,8861 12905,8943 Z"/>
 <path fill="rgb(205,220,57)" stroke="none" d="M 11910,9762 L 12408,9762 12408,9706 11910,9706 11910,9762 Z"/>
 <path fill="rgb(205,220,57)" stroke="none" d="M 10915,10113 L 11413,10113 11413,9998 10915,9998 10915,10113 Z"/>
 <path fill="rgb(205,220,57)" stroke="none" d="M 9920,11071 L 10417,11071 10417,10762 9920,10762 9920,11071 Z"/>
 <path fill="rgb(205,220,57)" stroke="none" d="M 8925,10597 L 9422,10597 9422,10106 8925,10106 8925,10597 Z"/>
 <path fill="rgb(205,220,57)" stroke="none" d="M 7929,9511 L 8427,9511 8427,9451 7929,9451 7929,9511 Z"/>
 <path fill="rgb(205,220,57)" stroke="none" d="M 6934,9981 L 7432,9981 7432,9944 6934,9944 6934,9981 Z"/>
 <path fill="rgb(205,220,57)" stroke="none" d="M 5939,11098 L 6436,11098 6436,11061 5939,11061 5939,11098 Z"/>
 <path fill="rgb(205,220,57)" stroke="none" d="M 4944,12115 L 5441,12115 5441,12095 4944,12095 4944,12115 Z"/>
 <path fill="rgb(205,220,57)" stroke="none" d="M 3948,10956 L 4446,10956 4446,10925 3948,10925 3948,10956 Z"/>
 <path fill="rgb(131,202,255)" stroke="none" d="M 35795,9240 L 36293,9240 36293,8905 35795,8905 35795,9240 Z"/>
 <path fill="rgb(131,202,255)" stroke="none" d="M 34800,9810 L 35297,9810 35297,9376 34800,9376 34800,9810 Z"/>
 <path fill="rgb(131,202,255)" stroke="none" d="M 33805,9810 L 34302,9810 34302,9351 33805,9351 33805,9810 Z"/>
 <path fill="rgb(131,202,255)" stroke="none" d="M 32809,10441 L 33307,10441 33307,10006 32809,10006 32809,10441 Z"/>
 <path fill="rgb(131,202,255)" stroke="none" d="M 31814,9644 L 32312,9644 32312,9292 31814,9292 31814,9644 Z"/>
 <path fill="rgb(131,202,255)" stroke="none" d="M 30819,9972 L 31316,9972 31316,9700 30819,9700 30819,9972 Z"/>
 <path fill="rgb(131,202,255)" stroke="none" d="M 29824,8623 L 30321,8623 30321,8353 29824,8353 29824,8623 Z"/>
 <path fill="rgb(131,202,255)" stroke="none" d="M 28828,7516 L 29326,7516 29326,7237 28828,7237 28828,7516 Z"/>
 <path fill="rgb(131,202,255)" stroke="none" d="M 27833,4607 L 28331,4607 28331,4428 27833,4428 27833,4607 Z"/>
 <path fill="rgb(131,202,255)" stroke="none" d="M 26838,8116 L 27336,8116 27336,7951 26838,7951 26838,8116 Z"/>
 <path fill="rgb(131,202,255)" stroke="none" d="M 25843,9365 L 26340,9365 26340,9168 25843,9168 25843,9365 Z"/>
 <path fill="rgb(131,202,255)" stroke="none" d="M 24847,9470 L 25345,9470 25345,9302 24847,9302 24847,9470 Z"/>
 <path fill="rgb(131,202,255)" stroke="none" d="M 23852,11321 L 24350,11321 24350,11173 23852,11173 23852,11321 Z"/>
 <path fill="rgb(131,202,255)" stroke="none" d="M 22857,10014 L 23355,10014 23355,9805 22857,9805 22857,10014 Z"/>
 <path fill="rgb(131,202,255)" stroke="none" d="M 21862,9220 L 22359,9220 22359,8979 21862,8979 21862,9220 Z"/>
 <path fill="rgb(131,202,255)" stroke="none" d="M 20866,8517 L 21364,8517 21364,8183 20866,8183 20866,8517 Z"/>
 <path fill="rgb(131,202,255)" stroke="none" d="M 19872,8619 L 20370,8619 20370,8102 19872,8102 19872,8619 Z"/>
 <path fill="rgb(131,202,255)" stroke="none" d="M 18877,8804 L 19375,8804 19375,8483 18877,8483 18877,8804 Z"/>
 <path fill="rgb(131,202,255)" stroke="none" d="M 17882,7917 L 18379,7917 18379,7628 17882,7628 17882,7917 Z"/>
 <path fill="rgb(131,202,255)" stroke="none" d="M 16886,9829 L 17384,9829 17384,9660 16886,9660 16886,9829 Z"/>
 <path fill="rgb(131,202,255)" stroke="none" d="M 15891,9025 L 16389,9025 16389,8886 15891,8886 15891,9025 Z"/>
 <path fill="rgb(131,202,255)" stroke="none" d="M 14896,8886 L 15394,8886 15394,8783 14896,8783 14896,8886 Z"/>
 <path fill="rgb(131,202,255)" stroke="none" d="M 13901,8871 L 14398,8871 14398,8767 13901,8767 13901,8871 Z"/>
 <path fill="rgb(131,202,255)" stroke="none" d="M 12905,8861 L 13403,8861 13403,8733 12905,8733 12905,8861 Z"/>
 <path fill="rgb(131,202,255)" stroke="none" d="M 11910,9706 L 12408,9706 12408,9137 11910,9137 11910,9706 Z"/>
 <path fill="rgb(131,202,255)" stroke="none" d="M 10915,9998 L 11413,9998 11413,9237 10915,9237 10915,9998 Z"/>
 <path fill="rgb(131,202,255)" stroke="none" d="M 9920,10762 L 10417,10762 10417,10089 9920,10089 9920,10762 Z"/>
 <path fill="rgb(131,202,255)" stroke="none" d="M 8925,10106 L 9422,10106 9422,9228 8925,9228 8925,10106 Z"/>
 <path fill="rgb(131,202,255)" stroke="none" d="M 7929,9451 L 8427,9451 8427,8292 7929,8292 7929,9451 Z"/>
 <path fill="rgb(131,202,255)" stroke="none" d="M 6934,9944 L 7432,9944 7432,8629 6934,8629 6934,9944 Z"/>
 <path fill="rgb(131,202,255)" stroke="none" d="M 5939,11061 L 6436,11061 6436,9693 5939,9693 5939,11061 Z"/>
 <path fill="rgb(131,202,255)" stroke="none" d="M 4944,12095 L 5441,12095 5441,9864 4944,9864 4944,12095 Z"/>
 <path fill="rgb(131,202,255)" stroke="none" d="M 3948,10925 L 4446,10925 4446,7572 3948,7572 3948,10925 Z"/>
 <text class="SVGTextShape" transform="rotate(-44.9 2988 16778)"><tspan class="TextParagraph" font-family="DejaVu Sans, sans-serif" font-size="353px" font-weight="400"><tspan class="TextPosition" x="2988" y="16778"><tspan fill="rgb(0,0,0)" stroke="none" style="white-space: pre">January 18</tspan></tspan></tspan></text>
 <text class="SVGTextShape" transform="rotate(-44.9 3834 16927)"><tspan class="TextParagraph" font-family="DejaVu Sans, sans-serif" font-size="353px" font-weight="400"><tspan class="TextPosition" x="3834" y="16927"><tspan fill="rgb(0,0,0)" stroke="none" style="white-space: pre">February 18</tspan></tspan></tspan></text>
 <text class="SVGTextShape" transform="rotate(-44.9 5167 16590)"><tspan class="TextParagraph" font-family="DejaVu Sans, sans-serif" font-size="353px" font-weight="400"><tspan class="TextPosition" x="5167" y="16590"><tspan fill="rgb(0,0,0)" stroke="none" style="white-space: pre">March 18</tspan></tspan></tspan></text>
 <text class="SVGTextShape" transform="rotate(-44.9 6330 16422)"><tspan class="TextParagraph" font-family="DejaVu Sans, sans-serif" font-size="353px" font-weight="400"><tspan class="TextPosition" x="6330" y="16422"><tspan fill="rgb(0,0,0)" stroke="none" style="white-space: pre">April 18</tspan></tspan></tspan></text>
 <text class="SVGTextShape" transform="rotate(-44.9 7381 16366)"><tspan class="TextParagraph" font-family="DejaVu Sans, sans-serif" font-size="353px" font-weight="400"><tspan class="TextPosition" x="7381" y="16366"><tspan fill="rgb(0,0,0)" stroke="none" style="white-space: pre">May 18</tspan></tspan></tspan></text>
 <text class="SVGTextShape" transform="rotate(-44.9 8358 16384)"><tspan class="TextParagraph" font-family="DejaVu Sans, sans-serif" font-size="353px" font-weight="400"><tspan class="TextPosition" x="8358" y="16384"><tspan fill="rgb(0,0,0)" stroke="none" style="white-space: pre">June 18</tspan></tspan></tspan></text>
 <text class="SVGTextShape" transform="rotate(-44.9 9429 16310)"><tspan class="TextParagraph" font-family="DejaVu Sans, sans-serif" font-size="353px" font-weight="400"><tspan class="TextPosition" x="9429" y="16310"><tspan fill="rgb(0,0,0)" stroke="none" style="white-space: pre">July 18</tspan></tspan></tspan></text>
 <text class="SVGTextShape" transform="rotate(-44.9 10031 16702)"><tspan class="TextParagraph" font-family="DejaVu Sans, sans-serif" font-size="353px" font-weight="400"><tspan class="TextPosition" x="10031" y="16702"><tspan fill="rgb(0,0,0)" stroke="none" style="white-space: pre">August 18</tspan></tspan></tspan></text>
 <text class="SVGTextShape" transform="rotate(-44.9 10540 17189)"><tspan class="TextParagraph" font-family="DejaVu Sans, sans-serif" font-size="353px" font-weight="400"><tspan class="TextPosition" x="10540" y="17189"><tspan fill="rgb(0,0,0)" stroke="none" style="white-space: pre">September 18</tspan></tspan></tspan></text>
 <text class="SVGTextShape" transform="rotate(-44.9 11908 16816)"><tspan class="TextParagraph" font-family="DejaVu Sans, sans-serif" font-size="353px" font-weight="400"><tspan class="TextPosition" x="11908" y="16816"><tspan fill="rgb(0,0,0)" stroke="none" style="white-space: pre">October 18</tspan></tspan></tspan></text>
 <text class="SVGTextShape" transform="rotate(-44.9 12587 17132)"><tspan class="TextParagraph" font-family="DejaVu Sans, sans-serif" font-size="353px" font-weight="400"><tspan class="TextPosition" x="12587" y="17132"><tspan fill="rgb(0,0,0)" stroke="none" style="white-space: pre">November 18</tspan></tspan></tspan></text>
 <text class="SVGTextShape" transform="rotate(-44.9 13600 17114)"><tspan class="TextParagraph" font-family="DejaVu Sans, sans-serif" font-size="353px" font-weight="400"><tspan class="TextPosition" x="13600" y="17114"><tspan fill="rgb(0,0,0)" stroke="none" style="white-space: pre">December 18</tspan></tspan></tspan></text>
 <text class="SVGTextShape" transform="rotate(-44.9 14931 16778)"><tspan class="TextParagraph" font-family="DejaVu Sans, sans-serif" font-size="353px" font-weight="400"><tspan class="TextPosition" x="14931" y="16778"><tspan fill="rgb(0,0,0)" stroke="none" style="white-space: pre">January 19</tspan></tspan></tspan></text>
 <text class="SVGTextShape" transform="rotate(-44.9 15777 16927)"><tspan class="TextParagraph" font-family="DejaVu Sans, sans-serif" font-size="353px" font-weight="400"><tspan class="TextPosition" x="15777" y="16927"><tspan fill="rgb(0,0,0)" stroke="none" style="white-space: pre">February 19</tspan></tspan></tspan></text>
 <text class="SVGTextShape" transform="rotate(-44.9 17110 16590)"><tspan class="TextParagraph" font-family="DejaVu Sans, sans-serif" font-size="353px" font-weight="400"><tspan class="TextPosition" x="17110" y="16590"><tspan fill="rgb(0,0,0)" stroke="none" style="white-space: pre">March 19</tspan></tspan></tspan></text>
 <text class="SVGTextShape" transform="rotate(-44.9 18273 16422)"><tspan class="TextParagraph" font-family="DejaVu Sans, sans-serif" font-size="353px" font-weight="400"><tspan class="TextPosition" x="18273" y="16422"><tspan fill="rgb(0,0,0)" stroke="none" style="white-space: pre">April 19</tspan></tspan></tspan></text>
 <text class="SVGTextShape" transform="rotate(-44.9 19324 16366)"><tspan class="TextParagraph" font-family="DejaVu Sans, sans-serif" font-size="353px" font-weight="400"><tspan class="TextPosition" x="19324" y="16366"><tspan fill="rgb(0,0,0)" stroke="none" style="white-space: pre">May 19</tspan></tspan></tspan></text>
 <text class="SVGTextShape" transform="rotate(-44.9 20301 16384)"><tspan class="TextParagraph" font-family="DejaVu Sans, sans-serif" font-size="353px" font-weight="400"><tspan class="TextPosition" x="20301" y="16384"><tspan fill="rgb(0,0,0)" stroke="none" style="white-space: pre">June 19</tspan></tspan></tspan></text>
 <text class="SVGTextShape" transform="rotate(-44.9 21371 16310)"><tspan class="TextParagraph" font-family="DejaVu Sans, sans-serif" font-size="353px" font-weight="400"><tspan class="TextPosition" x="21371" y="16310"><tspan fill="rgb(0,0,0)" stroke="none" style="white-space: pre">July 19</tspan></tspan></tspan></text>
 <text class="SVGTextShape" transform="rotate(-44.9 21974 16702)"><tspan class="TextParagraph" font-family="DejaVu Sans, sans-serif" font-size="353px" font-weight="400"><tspan class="TextPosition" x="21974" y="16702"><tspan fill="rgb(0,0,0)" stroke="none" style="white-space: pre">August 19</tspan></tspan></tspan></text>
 <text class="SVGTextShape" transform="rotate(-44.9 22483 17189)"><tspan class="TextParagraph" font-family="DejaVu Sans, sans-serif" font-size="353px" font-weight="400"><tspan class="TextPosition" x="22483" y="17189"><tspan fill="rgb(0,0,0)" stroke="none" style="white-space: pre">September 19</tspan></tspan></tspan></text>
 <text class="SVGTextShape" transform="rotate(-44.9 23851 16816)"><tspan class="TextParagraph" font-family="DejaVu Sans, sans-serif" font-size="353px" font-weight="400"><tspan class="TextPosition" x="23851" y="16816"><tspan fill="rgb(0,0,0)" stroke="none" style="white-space: pre">October 19</tspan></tspan></tspan></text>
 <text class="SVGTextShape" transform="rotate(-44.9 24529 17132)"><tspan class="TextParagraph" font-family="DejaVu Sans, sans-serif" font-size="353px" font-weight="400"><tspan class="TextPosition" x="24529" y="17132"><tspan fill="rgb(0,0,0)" stroke="none" style="white-space: pre">November 19</tspan></tspan></tspan></text>
 <text class="SVGTextShape" transform="rotate(-44.9 25543 17114)"><tspan class="TextParagraph" font-family="DejaVu Sans, sans-serif" font-size="353px" font-weight="400"><tspan class="TextPosition" x="25543" y="17114"><tspan fill="rgb(0,0,0)" stroke="none" style="white-space: pre">December 19</tspan></tspan></tspan></text>
 <text class="SVGTextShape" transform="rotate(-44.9 26874 16778)"><tspan class="TextParagraph" font-family="DejaVu Sans, sans-serif" font-size="353px" font-weight="400"><tspan class="TextPosition" x="26874" y="16778"><tspan fill="rgb(0,0,0)" stroke="none" style="white-space: pre">January 20</tspan></tspan></tspan></text>
 <text class="SVGTextShape" transform="rotate(-44.9 27720 16927)"><tspan class="TextParagraph" font-family="DejaVu Sans, sans-serif" font-size="353px" font-weight="400"><tspan class="TextPosition" x="27720" y="16927"><tspan fill="rgb(0,0,0)" stroke="none" style="white-space: pre">February 20</tspan></tspan></tspan></text>
 <text class="SVGTextShape" transform="rotate(-44.9 29052 16590)"><tspan class="TextParagraph" font-family="DejaVu Sans, sans-serif" font-size="353px" font-weight="400"><tspan class="TextPosition" x="29052" y="16590"><tspan fill="rgb(0,0,0)" stroke="none" style="white-space: pre">March 20</tspan></tspan></tspan></text>
 <text class="SVGTextShape" transform="rotate(-44.9 30215 16422)"><tspan class="TextParagraph" font-family="DejaVu Sans, sans-serif" font-size="353px" font-weight="400"><tspan class="TextPosition" x="30215" y="16422"><tspan fill="rgb(0,0,0)" stroke="none" style="white-space: pre">April 20</tspan></tspan></tspan></text>
 <text class="SVGTextShape" transform="rotate(-44.9 31266 16366)"><tspan class="TextParagraph" font-family="DejaVu Sans, sans-serif" font-size="353px" font-weight="400"><tspan class="TextPosition" x="31266" y="16366"><tspan fill="rgb(0,0,0)" stroke="none" style="white-space: pre">May 20</tspan></tspan></tspan></text>
 <text class="SVGTextShape" transform="rotate(-44.9 32243 16384)"><tspan class="TextParagraph" font-family="DejaVu Sans, sans-serif" font-size="353px" font-weight="400"><tspan class="TextPosition" x="32243" y="16384"><tspan fill="rgb(0,0,0)" stroke="none" style="white-space: pre">June 20</tspan></tspan></tspan></text>
 <text class="SVGTextShape" transform="rotate(-44.9 33313 16310)"><tspan class="TextParagraph" font-family="DejaVu Sans, sans-serif" font-size="353px" font-weight="400"><tspan class="TextPosition" x="33313" y="16310"><tspan fill="rgb(0,0,0)" stroke="none" style="white-space: pre">July 20</tspan></tspan></tspan></text>
 <text class="SVGTextShape" transform="rotate(-44.9 33916 16702)"><tspan class="TextParagraph" font-family="DejaVu Sans, sans-serif" font-size="353px" font-weight="400"><tspan class="TextPosition" x="33916" y="16702"><tspan fill="rgb(0,0,0)" stroke="none" style="white-space: pre">August 20</tspan></tspan></tspan></text>
 <text class="SVGTextShape" transform="rotate(-44.9 34425 17189)"><tspan class="TextParagraph" font-family="DejaVu Sans, sans-serif" font-size="353px" font-weight="400"><tspan class="TextPosition" x="34425" y="17189"><tspan fill="rgb(0,0,0)" stroke="none" style="white-space: pre">September 20</tspan></tspan></tspan></text>
 <text class="SVGTextShape"><tspan class="TextParagraph" font-family="DejaVu Sans, sans-serif" font-size="353px" font-weight="400"><tspan class="TextPosition" x="3238" y="15132"><tspan fill="rgb(0,0,0)" stroke="none" style="white-space: pre">0</tspan></tspan></tspan></text>
 <text class="SVGTextShape"><tspan class="TextParagraph" font-family="DejaVu Sans, sans-serif" font-size="353px" font-weight="400"><tspan class="TextPosition" x="2180" y="13804"><tspan fill="rgb(0,0,0)" stroke="none" style="white-space: pre">500000</tspan></tspan></tspan></text>
 <text class="SVGTextShape"><tspan class="TextParagraph" font-family="DejaVu Sans, sans-serif" font-size="353px" font-weight="400"><tspan class="TextPosition" x="1968" y="12476"><tspan fill="rgb(0,0,0)" stroke="none" style="white-space: pre">1000000</tspan></tspan></tspan></text>
 <text class="SVGTextShape"><tspan class="TextParagraph" font-family="DejaVu Sans, sans-serif" font-size="353px" font-weight="400"><tspan class="TextPosition" x="1968" y="11148"><tspan fill="rgb(0,0,0)" stroke="none" style="white-space: pre">1500000</tspan></tspan></tspan></text>
 <text class="SVGTextShape"><tspan class="TextParagraph" font-family="DejaVu Sans, sans-serif" font-size="353px" font-weight="400"><tspan class="TextPosition" x="1968" y="9820"><tspan fill="rgb(0,0,0)" stroke="none" style="white-space: pre">2000000</tspan></tspan></tspan></text>
 <text class="SVGTextShape"><tspan class="TextParagraph" font-family="DejaVu Sans, sans-serif" font-size="353px" font-weight="400"><tspan class="TextPosition" x="1968" y="8492"><tspan fill="rgb(0,0,0)" stroke="none" style="white-space: pre">2500000</tspan></tspan></tspan></text>
 <text class="SVGTextShape"><tspan class="TextParagraph" font-family="DejaVu Sans, sans-serif" font-size="353px" font-weight="400"><tspan class="TextPosition" x="1968" y="7164"><tspan fill="rgb(0,0,0)" stroke="none" style="white-space: pre">3000000</tspan></tspan></tspan></text>
 <text class="SVGTextShape"><tspan class="TextParagraph" font-family="DejaVu Sans, sans-serif" font-size="353px" font-weight="400"><tspan class="TextPosition" x="1968" y="5836"><tspan fill="rgb(0,0,0)" stroke="none" style="white-space: pre">3500000</tspan></tspan></tspan></text>
 <text class="SVGTextShape"><tspan class="TextParagraph" font-family="DejaVu Sans, sans-serif" font-size="353px" font-weight="400"><tspan class="TextPosition" x="1968" y="4508"><tspan fill="rgb(0,0,0)" stroke="none" style="white-space: pre">4000000</tspan></tspan></tspan></text>
 <text class="SVGTextShape"><tspan class="TextParagraph" font-family="DejaVu Sans, sans-serif" font-size="353px" font-weight="400"><tspan class="TextPosition" x="1968" y="3181"><tspan fill="rgb(0,0,0)" stroke="none" style="white-space: pre">4500000</tspan></tspan></tspan></text>
 <text class="SVGTextShape"><tspan class="TextParagraph" font-family="DejaVu Sans, sans-serif" font-size="494px" font-weight="400"><tspan class="TextPosition" x="18131" y="1098"><tspan fill="rgb(0,0,0)" stroke="none" style="white-space: pre">State of the DApps</tspan></tspan></tspan></text>
 <text class="SVGTextShape"><tspan class="TextParagraph" font-family="DejaVu Sans, sans-serif" font-size="459px" font-weight="400"><tspan class="TextPosition" x="16359" y="2267"><tspan fill="rgb(0,0,0)" stroke="none" style="white-space: pre">Ethereum DApp Activity by Category</tspan></tspan></tspan></text>
 <path fill="rgb(158,158,158)" stroke="none" d="M 37629,14052 L 37502,14052 37502,13798 37756,13798 37756,14052 37629,14052 Z"/>
 <path fill="rgb(255,111,0)" stroke="none" d="M 37629,13448 L 37502,13448 37502,13194 37756,13194 37756,13448 37629,13448 Z"/>
 <path fill="rgb(255,211,32)" stroke="none" d="M 37629,12844 L 37502,12844 37502,12590 37756,12590 37756,12844 37629,12844 Z"/>
 <path fill="rgb(109,76,65)" stroke="none" d="M 37629,12240 L 37502,12240 37502,11986 37756,11986 37756,12240 37629,12240 Z"/>
 <path fill="rgb(52,101,164)" stroke="none" d="M 37629,11636 L 37502,11636 37502,11382 37756,11382 37756,11636 37629,11636 Z"/>
 <path fill="rgb(0,140,79)" stroke="none" d="M 37629,11032 L 37502,11032 37502,10778 37756,10778 37756,11032 37629,11032 Z"/>
 <path fill="rgb(49,64,4)" stroke="none" d="M 37629,10428 L 37502,10428 37502,10174 37756,10174 37756,10428 37629,10428 Z"/>
 <path fill="rgb(174,207,0)" stroke="none" d="M 37629,9824 L 37502,9824 37502,9570 37756,9570 37756,9824 37629,9824 Z"/>
 <path fill="rgb(33,33,33)" stroke="none" d="M 37629,9220 L 37502,9220 37502,8966 37756,8966 37756,9220 37629,9220 Z"/>
 <path fill="rgb(255,149,14)" stroke="none" d="M 37629,8617 L 37502,8617 37502,8363 37756,8363 37756,8617 37629,8617 Z"/>
 <path fill="rgb(197,0,11)" stroke="none" d="M 37629,8013 L 37502,8013 37502,7759 37756,7759 37756,8013 37629,8013 Z"/>
 <path fill="rgb(0,132,209)" stroke="none" d="M 37629,7409 L 37502,7409 37502,7155 37756,7155 37756,7409 37629,7409 Z"/>
 <path fill="rgb(0,69,134)" stroke="none" d="M 37629,6805 L 37502,6805 37502,6551 37756,6551 37756,6805 37629,6805 Z"/>
 <path fill="rgb(255,66,14)" stroke="none" d="M 37629,6201 L 37502,6201 37502,5947 37756,5947 37756,6201 37629,6201 Z"/>
 <path fill="rgb(255,211,32)" stroke="none" d="M 37629,5597 L 37502,5597 37502,5343 37756,5343 37756,5597 37629,5597 Z"/>
 <path fill="rgb(87,157,28)" stroke="none" d="M 37629,4993 L 37502,4993 37502,4739 37756,4739 37756,4993 37629,4993 Z"/>
 <path fill="rgb(205,220,57)" stroke="none" d="M 37629,4389 L 37502,4389 37502,4135 37756,4135 37756,4389 37629,4389 Z"/>
 <path fill="rgb(131,202,255)" stroke="none" d="M 37629,3785 L 37502,3785 37502,3531 37756,3531 37756,3785 37629,3785 Z"/>
 <text class="SVGTextShape"><tspan class="TextParagraph" font-family="DejaVu Sans, sans-serif" font-size="423px" font-weight="400"><tspan class="TextPosition" x="37856" y="3803"><tspan fill="rgb(0,0,0)" stroke="none" style="white-space: pre">Wallet</tspan></tspan></tspan></text>
 <text class="SVGTextShape"><tspan class="TextParagraph" font-family="DejaVu Sans, sans-serif" font-size="423px" font-weight="400"><tspan class="TextPosition" x="37856" y="4407"><tspan fill="rgb(0,0,0)" stroke="none" style="white-space: pre">Storage</tspan></tspan></tspan></text>
 <text class="SVGTextShape"><tspan class="TextParagraph" font-family="DejaVu Sans, sans-serif" font-size="423px" font-weight="400"><tspan class="TextPosition" x="37856" y="5011"><tspan fill="rgb(0,0,0)" stroke="none" style="white-space: pre">Social</tspan></tspan></tspan></text>
 <text class="SVGTextShape"><tspan class="TextParagraph" font-family="DejaVu Sans, sans-serif" font-size="423px" font-weight="400"><tspan class="TextPosition" x="37856" y="5615"><tspan fill="rgb(0,0,0)" stroke="none" style="white-space: pre">Security</tspan></tspan></tspan></text>
 <text class="SVGTextShape"><tspan class="TextParagraph" font-family="DejaVu Sans, sans-serif" font-size="423px" font-weight="400"><tspan class="TextPosition" x="37856" y="6219"><tspan fill="rgb(0,0,0)" stroke="none" style="white-space: pre">Property</tspan></tspan></tspan></text>
 <text class="SVGTextShape"><tspan class="TextParagraph" font-family="DejaVu Sans, sans-serif" font-size="423px" font-weight="400"><tspan class="TextPosition" x="37856" y="6823"><tspan fill="rgb(0,0,0)" stroke="none" style="white-space: pre">Media</tspan></tspan></tspan></text>
 <text class="SVGTextShape"><tspan class="TextParagraph" font-family="DejaVu Sans, sans-serif" font-size="423px" font-weight="400"><tspan class="TextPosition" x="37856" y="7427"><tspan fill="rgb(0,0,0)" stroke="none" style="white-space: pre">Marketplaces</tspan></tspan></tspan></text>
 <text class="SVGTextShape"><tspan class="TextParagraph" font-family="DejaVu Sans, sans-serif" font-size="423px" font-weight="400"><tspan class="TextPosition" x="37856" y="8031"><tspan fill="rgb(0,0,0)" stroke="none" style="white-space: pre">Insurance</tspan></tspan></tspan></text>
 <text class="SVGTextShape"><tspan class="TextParagraph" font-family="DejaVu Sans, sans-serif" font-size="423px" font-weight="400"><tspan class="TextPosition" x="37856" y="8635"><tspan fill="rgb(0,0,0)" stroke="none" style="white-space: pre">Identity</tspan></tspan></tspan></text>
 <text class="SVGTextShape"><tspan class="TextParagraph" font-family="DejaVu Sans, sans-serif" font-size="423px" font-weight="400"><tspan class="TextPosition" x="37856" y="9238"><tspan fill="rgb(0,0,0)" stroke="none" style="white-space: pre">High-Risk</tspan></tspan></tspan></text>
 <text class="SVGTextShape"><tspan class="TextParagraph" font-family="DejaVu Sans, sans-serif" font-size="423px" font-weight="400"><tspan class="TextPosition" x="37856" y="9842"><tspan fill="rgb(0,0,0)" stroke="none" style="white-space: pre">Health</tspan></tspan></tspan></text>
 <text class="SVGTextShape"><tspan class="TextParagraph" font-family="DejaVu Sans, sans-serif" font-size="423px" font-weight="400"><tspan class="TextPosition" x="37856" y="10446"><tspan fill="rgb(0,0,0)" stroke="none" style="white-space: pre">Governance</tspan></tspan></tspan></text>
 <text class="SVGTextShape"><tspan class="TextParagraph" font-family="DejaVu Sans, sans-serif" font-size="423px" font-weight="400"><tspan class="TextPosition" x="37856" y="11050"><tspan fill="rgb(0,0,0)" stroke="none" style="white-space: pre">Games</tspan></tspan></tspan></text>
 <text class="SVGTextShape"><tspan class="TextParagraph" font-family="DejaVu Sans, sans-serif" font-size="423px" font-weight="400"><tspan class="TextPosition" x="37856" y="11654"><tspan fill="rgb(0,0,0)" stroke="none" style="white-space: pre">Gambling</tspan></tspan></tspan></text>
 <text class="SVGTextShape"><tspan class="TextParagraph" font-family="DejaVu Sans, sans-serif" font-size="423px" font-weight="400"><tspan class="TextPosition" x="37856" y="12258"><tspan fill="rgb(0,0,0)" stroke="none" style="white-space: pre">Finance</tspan></tspan></tspan></text>
 <text class="SVGTextShape"><tspan class="TextParagraph" font-family="DejaVu Sans, sans-serif" font-size="423px" font-weight="400"><tspan class="TextPosition" x="37856" y="12862"><tspan fill="rgb(0,0,0)" stroke="none" style="white-space: pre">Exchanges</tspan></tspan></tspan></text>
 <text class="SVGTextShape"><tspan class="TextParagraph" font-family="DejaVu Sans, sans-serif" font-size="423px" font-weight="400"><tspan class="TextPosition" x="37856" y="13466"><tspan fill="rgb(0,0,0)" stroke="none" style="white-space: pre">Energy</tspan></tspan></tspan></text>
 <text class="SVGTextShape"><tspan class="TextParagraph" font-family="DejaVu Sans, sans-serif" font-size="423px" font-weight="400"><tspan class="TextPosition" x="37856" y="14070"><tspan fill="rgb(0,0,0)" stroke="none" style="white-space: pre">Development</tspan></tspan></tspan></text>
 <text class="SVGTextShape" transform="rotate(-90 924 11323)"><tspan class="TextParagraph" font-family="DejaVu Sans, sans-serif" font-size="388px" font-weight="400"><tspan class="TextPosition" x="924" y="11323"><tspan fill="rgb(0,0,0)" stroke="none" style="white-space: pre">Transactions</tspan></tspan></tspan></text>
</svg>