<?xml version="1.0" encoding="UTF-8" standalone="no"?>
<!-- Created with Inkscape (http://www.inkscape.org/) -->

<svg
   width="150.34174mm"
   height="76.588921mm"
   viewBox="0 0 150.32671 76.581258"
   version="1.1"
   id="svg5"
   inkscape:version="1.1.2 (0a00cf5339, 2022-02-04, custom)"
   sodipodi:docname="IOT-Tsunami-background.svg"
   xmlns:inkscape="http://www.inkscape.org/namespaces/inkscape"
   xmlns:sodipodi="http://sodipodi.sourceforge.net/DTD/sodipodi-0.dtd"
   xmlns="http://www.w3.org/2000/svg"
   xmlns:svg="http://www.w3.org/2000/svg">
  <sodipodi:namedview
     id="namedview7"
     pagecolor="#505050"
     bordercolor="#ffffff"
     borderopacity="1"
     inkscape:pageshadow="0"
     inkscape:pageopacity="0"
     inkscape:pagecheckerboard="1"
     inkscape:document-units="mm"
     showgrid="false"
     inkscape:zoom="2.259389"
     inkscape:cx="225.50345"
     inkscape:cy="151.14706"
     inkscape:window-width="1892"
     inkscape:window-height="992"
     inkscape:window-x="12"
     inkscape:window-y="42"
     inkscape:window-maximized="1"
     inkscape:current-layer="layer7"
     fit-margin-top="0"
     fit-margin-left="0"
     fit-margin-right="0"
     fit-margin-bottom="0"
     lock-margins="false"
     scale-x="0.9999"
     height="76.58892mm" />
  <defs
     id="defs2" />
  <g
     inkscape:groupmode="layer"
     id="layer7"
     inkscape:label="Layer 7"
     style="display:inline">
    <path
       style="fill:#008c4f;fill-opacity:1;stroke:none;stroke-width:0.264583px;stroke-linecap:butt;stroke-linejoin:miter;stroke-opacity:1"
       d="M 42.73774,46.716947 40.587358,46.980453 37.059383,46.457758 32.489817,45.209338 28.457842,43.874523 26.355459,43.287031 22.232288,42.263239 19.664306,41.533193 18.421114,41.209211 15.531535,40.5742 12.934754,40.051505 8.7955627,39.037902 c 0,0 -3.7439721,-0.552936 -3.7727734,-0.889878 C 4.9939881,37.81108 1.758812,37.275426 1.758812,37.275426 L 0.21322231,36.990319 v 22.419725 l 11.41431869,0.527015 -0.0698,-2.54118 h 31.144782 z"
       id="path8734" />
  </g>
  <g
     inkscape:groupmode="layer"
     id="layer6"
     inkscape:label="Layer 6"
     style="display:inline">
    <path
       style="display:inline;fill:#ffff99;stroke:none;stroke-width:0.264583px;stroke-linecap:butt;stroke-linejoin:miter;stroke-opacity:1"
       d="m 11.55774,57.395879 c 0.186061,-0.811683 0.06167,-1.764379 0.786417,-2.331379 1.273475,-1.455245 2.345098,-3.089983 3.591578,-4.554225 0.760585,-0.597036 1.473739,-1.277429 2.44236,-1.508845 1.594812,-0.645974 3.243736,-1.202973 4.930529,-1.530103 1.869428,-0.298713 3.764405,-0.09401 5.642809,0.0041 3.50845,0.288408 7.027676,0.807217 10.550728,0.588248 0.927855,-0.121947 1.874033,-0.182762 2.68085,-0.708515 0.351549,-0.535553 0.772719,-0.747783 1.427475,-0.524682 2.763502,0.401539 5.558805,0.191734 8.340549,0.242577 0,9.267746 0,18.535491 0,27.803237 -13.612703,0 -27.225407,0 -40.83811,0 0.148272,-5.826817 0.296543,-11.653635 0.444815,-17.480452 z"
       id="path8549" />
  </g>
  <g
     inkscape:groupmode="layer"
     id="layer5"
     inkscape:label="Layer 5"
     style="display:inline">
    <path
       style="fill:#65c2ff;fill-opacity:1;stroke:none;stroke-width:0.264583px;stroke-linecap:butt;stroke-linejoin:miter;stroke-opacity:1"
       d="m 16.264009,59.201996 c 0,5.988277 0,11.976553 0,17.96483 22.277721,0 44.555441,0 66.833162,0 0,-6.448011 0,-12.896023 0,-19.344034 4.076851,-3.583227 8.153701,-7.166455 12.230552,-10.749682 -16.463965,0 -32.927929,0 -49.391894,0 2.911571,0.683141 5.136586,3.947042 0.837718,4.101444 -5.280089,1.994195 -10.976174,2.167142 -16.545446,1.871639 -4.531515,0.112511 -9.310048,0.961051 -13.070055,3.638625 -0.849203,0.575719 -0.698136,1.639734 -0.894037,2.517178 z"
       id="path6341" />
    <path
       style="display:inline;fill:#008c4f;fill-opacity:1;stroke:none;stroke-width:0.264583px;stroke-linecap:butt;stroke-linejoin:miter;stroke-opacity:1"
       d="m 40.169205,54.320418 c 1.641537,-0.436069 3.271562,-0.977528 4.97802,-1.090395 1.791431,-0.197781 3.601225,-0.340758 5.400678,-0.165589 0.649591,0.05956 1.324207,0.04613 1.929784,0.318037 l 2.18072,0.778279 c -0.03297,1.452836 1.666433,-0.446058 1.633463,1.006778 -5.027167,0.999311 -12.151491,-0.06667 -16.967458,-0.112746 z"
       id="path11435"
       sodipodi:nodetypes="cccccccc" />
  </g>
  <g
     inkscape:groupmode="layer"
     id="layer9"
     inkscape:label="Layer 9"
     style="display:inline" />
  <g
     inkscape:groupmode="layer"
     id="layer4"
     inkscape:label="Layer 4"
     style="display:inline">
    <path
       style="fill:#0083d7;stroke:#ffffff;stroke-width:0.264583px;stroke-linecap:butt;stroke-linejoin:miter;stroke-opacity:1"
       d="m 16.529486,59.165754 c 6.939272,0.983415 13.757947,2.148067 17.058649,1.567053 3.157042,-0.970867 10.159854,-1.354875 13.160268,-0.537175 2.561802,1.329379 5.459129,1.092173 8.31425,1.204448 3.752912,-1.08036 6.413713,-3.488858 8.431461,-6.378073 1.297141,-3.027205 4.807222,-0.227849 6.135527,1.810445 1.476012,1.89055 4.598431,4.323102 6.594353,1.708185 0.848346,-1.788028 2.80511,-2.767223 4.513943,-1.611532 0.735572,0.335055 1.851516,0.392091 2.359234,0.893687 V 77.348711 H 16.48269 l 0.0468,-18.182957 z"
       id="path4040"
       sodipodi:nodetypes="scccccccccccs" />
    <path
       style="fill:#ffff99;fill-opacity:1;stroke:none;stroke-width:0.264583px;stroke-linecap:butt;stroke-linejoin:miter;stroke-opacity:1"
       d="m 40.169205,54.320418 -0.844793,0.734364 c 3.466978,1.879182 7.576029,2.178016 11.422784,1.628497 1.898435,-0.278883 3.799223,-0.696794 5.544674,-1.515751 -0.211864,-0.625998 -1.031788,-1.191472 -1.633462,-1.006778 0.220727,0.457593 0.113611,0.808755 -0.441842,0.576996 -0.732739,-0.118016 -1.500841,-0.04843 -2.170513,0.281797 -0.680727,0.305663 -1.382318,0.664413 -2.151934,0.468041 -0.651166,-0.06477 -1.30848,0.0023 -1.95264,0.04304 -0.672066,-0.144358 -1.04111,-1.001147 -1.798079,-0.879265 -0.681485,0.03291 -1.309025,0.330895 -1.918809,0.610488 -0.810814,0.05984 -1.594332,-0.433024 -2.23528,-0.850804 -0.358692,-0.690759 -1.04711,-0.280841 -1.598118,-0.147345 l -0.110996,0.02835 -0.110992,0.02836 z"
       id="path10772"
       sodipodi:nodetypes="cccccccccccccccc" />
    <g
       inkscape:groupmode="layer"
       id="layer8"
       inkscape:label="Layer 8"
       style="display:inline" />
  </g>
  <g
     inkscape:groupmode="layer"
     id="layer3"
     inkscape:label="Layer 3"
     style="display:inline">
    <path
       style="display:inline;fill:#008c4f;fill-opacity:1;stroke:none;stroke-width:0.264583px;stroke-linecap:butt;stroke-linejoin:miter;stroke-opacity:1"
       d="m 82.831693,57.71655 c 4.18655,-3.51957 8.19204,-7.27876 12.49603,-10.64344 3.36109,-1.67769 7.208237,-1.82682 10.816437,-2.64536 6.37911,-0.9251 12.81945,-1.32839 19.25478,-1.52967 2.38134,-0.25388 4.62093,-1.31546 7.05419,-0.94966 3.19823,-0.0866 5.65329,-3.05921 8.94895,-2.747 2.93603,-0.37921 6.00028,-0.25098 8.83973,0.01 0.53023,1.99227 -0.015,4.24305 0.11664,6.34018 -0.0976,5.3958 -0.19521,10.79159 -0.29281,16.18739 -8.57011,1.16035 -17.2049,1.74185 -25.79648,2.70467 -4.16885,0.27942 -8.35962,0.78536 -12.51839,0.14232 -4.56359,-0.41968 -9.15043,-0.8203 -13.555097,-2.16434 -5.19806,-1.30514 -10.29695,-2.96731 -15.36398,-4.7046 z"
       id="path1460" />
  </g>
  <g
     inkscape:groupmode="layer"
     id="layer2"
     inkscape:label="Layer 2"
     style="display:inline">
    <path
       style="fill:#999999;stroke:#ffffff;stroke-width:0.264583px;stroke-linecap:butt;stroke-linejoin:miter;stroke-opacity:1"
       d="m 0.322977,77.136262 v -21.52273 c 3.666261,1.18189 7.625691,0.44453 11.234763,1.92483 2.560585,0.52546 4.93451,1.44791 6.928778,3.17782 2.413348,1.66756 5.242054,2.82097 8.030358,3.65868 4.013723,0.93109 8.097747,1.13398 12.182717,1.40933 8.26102,1.10593 16.807918,-0.30135 24.981167,1.4707 1.609062,0.51589 3.019991,2.42401 4.22224,2.8002 4.908684,-4.26147 9.370321,-9.1857 15.194171,-12.2323 38.276319,13.601598 50.092109,1.149507 67.105259,0 v 19.83768 C 100.24261,77.485732 50.282795,77.311002 0.322977,77.136262 Z"
       id="path2159"
       sodipodi:nodetypes="cccccccccccc" />
    <path
       style="display:inline;fill:#ffcc00;stroke:#ffffff;stroke-width:0.264583px;stroke-linecap:butt;stroke-linejoin:miter;stroke-opacity:1"
       d="m 13.93963,160.03466 c 7.040078,1.08689 14.168221,1.31449 21.266626,1.74283 4.193133,0.75255 8.454854,-0.0494 12.669577,0.43006 3.606868,0.0176 7.245629,-0.84479 10.818108,0.0334 6.128357,0.9137 12.603071,-0.40043 18.492391,1.91592 1.959234,0.80374 3.715068,2.2189 4.767165,4.05988 -2.081176,0.91624 -5.542462,-0.0241 -8.108068,0.28853 l -59.715113,-0.33742 c -0.06356,-2.71104 -0.190686,-5.37941 -0.190686,-8.13322 z"
       id="path188"
       transform="translate(-13.807339,-91.174081)"
       sodipodi:nodetypes="cccccccccc" />
    <path
       style="display:inline;fill:#ffcc00;stroke:#ffffff;stroke-width:0.264583px;stroke-linecap:butt;stroke-linejoin:miter;stroke-opacity:1"
       d="m 89.49906,168.18497 c -1.16608,-1.5574 -4.21578,-3.27901 -1.143886,-4.50756 2.477988,-1.92626 5.082042,-3.97445 8.323884,-4.24787 4.046662,-0.59679 8.169912,-0.22829 12.249862,-0.42474 9.73318,-0.25373 19.46033,0.22766 29.19079,0.27693 5.76453,-0.16172 11.45261,-1.31904 17.22562,-1.45333 2.81049,0.0631 6.52222,-0.72002 8.78209,0.0238 0.007,3.43854 0.0145,6.87707 0.0216,10.31561 -24.88333,0.006 -49.76669,0.0115 -74.65,0.0172 z"
       id="path1456"
       transform="translate(-13.807339,-91.174081)" />
  </g>
</svg>
