<?xml version="1.0" encoding="UTF-8"?>
<!DOCTYPE svg PUBLIC "-//W3C//DTD SVG 1.1//EN" "http://www.w3.org/Graphics/SVG/1.1/DTD/svg11.dtd">
<svg xmlns="http://www.w3.org/2000/svg" xmlns:xlink="http://www.w3.org/1999/xlink" version="1.1" width="741px" height="357px" viewBox="-0.5 -0.5 741 357"><defs/><g><path d="M 650 0 L 650 90 L 430 90 L 430 110" fill="none" stroke="rgb(0, 0, 0)" stroke-miterlimit="10" stroke-dasharray="2.9999999999999996 2.9999999999999996" pointer-events="stroke"/><path d="M 420 160 L 420 190 L 200 190 L 200 220" fill="none" stroke="rgb(0, 0, 0)" stroke-miterlimit="10" pointer-events="stroke"/><path d="M 420 160 L 420 190 L 580 190 L 580 220" fill="none" stroke="rgb(0, 0, 0)" stroke-miterlimit="10" pointer-events="stroke"/><path d="M 560 255 L 560 280 L 229 280 L 229 320" fill="none" stroke="rgb(0, 0, 0)" stroke-miterlimit="10" pointer-events="stroke"/><path d="M 560 255 L 560 280 L 399 280 L 399 320" fill="none" stroke="rgb(0, 0, 0)" stroke-miterlimit="10" pointer-events="stroke"/><path d="M 559 255 L 559 260 L 559 320" fill="none" stroke="rgb(0, 0, 0)" stroke-miterlimit="10" pointer-events="stroke"/><path d="M 340 160 L 360 110 L 500 110 L 480 160 Z" fill="rgb(255, 255, 255)" stroke="rgb(0, 0, 0)" stroke-miterlimit="10" pointer-events="all"/><g fill="rgb(0, 0, 0)" font-family="Dejavu Sans" text-anchor="middle" font-size="11.999999999999998px"><text x="419.5" y="139.5">Manage Charging</text></g><path d="M 420 60 L 420 110" fill="none" stroke="rgb(0, 0, 0)" stroke-miterlimit="10" pointer-events="stroke"/><ellipse cx="420" cy="7.5" rx="7.499999999999999" ry="7.499999999999999" fill="rgb(255, 255, 255)" stroke="rgb(0, 0, 0)" pointer-events="all"/><path d="M 420 15 L 420 40 M 420 20 L 405 20 M 420 20 L 435 20 M 420 40 L 405 60 M 420 40 L 435 60" fill="none" stroke="rgb(0, 0, 0)" stroke-miterlimit="10" pointer-events="all"/><g fill="rgb(0, 0, 0)" font-family="Dejavu Sans" text-anchor="middle" font-size="11.999999999999998px"><text x="419.5" y="77.5">Charging Port</text></g><path d="M 639 150 L 580 150 L 484 150" fill="none" stroke="rgb(0, 0, 0)" stroke-miterlimit="10" pointer-events="stroke"/><ellipse cx="654" cy="117.5" rx="7.499999999999999" ry="7.499999999999999" fill="rgb(255, 255, 255)" stroke="rgb(0, 0, 0)" pointer-events="all"/><path d="M 654 125 L 654 150 M 654 130 L 639 130 M 654 130 L 669 130 M 654 150 L 639 170 M 654 150 L 669 170" fill="none" stroke="rgb(0, 0, 0)" stroke-miterlimit="10" pointer-events="all"/><g fill="rgb(0, 0, 0)" font-family="Dejavu Sans" text-anchor="middle" font-size="11.999999999999998px"><text x="653.5" y="187.5">Driver</text></g><path d="M 725 250 L 725 238 L 649.71 238" fill="none" stroke="rgb(0, 0, 0)" stroke-miterlimit="10" pointer-events="stroke"/><ellipse cx="725" cy="257.5" rx="7.499999999999999" ry="7.499999999999999" fill="rgb(255, 255, 255)" stroke="rgb(0, 0, 0)" pointer-events="all"/><path d="M 725 265 L 725 290 M 725 270 L 710 270 M 725 270 L 740 270 M 725 290 L 710 310 M 725 290 L 740 310" fill="none" stroke="rgb(0, 0, 0)" stroke-miterlimit="10" pointer-events="all"/><g fill="rgb(0, 0, 0)" font-family="Dejavu Sans" text-anchor="middle" font-size="11.999999999999998px"><text x="724.5" y="327.5">EV</text></g><path d="M 120 250 L 140 220 L 290 220 L 270 250 Z" fill="rgb(255, 255, 255)" stroke="rgb(0, 0, 0)" stroke-miterlimit="10" pointer-events="all"/><g fill="rgb(0, 0, 0)" font-family="Dejavu Sans" text-anchor="middle" font-size="11.999999999999998px"><text x="204.5" y="239.5">Reserve Charging Port</text></g><path d="M 500 255 L 520 220 L 660 220 L 640 255 Z" fill="rgb(255, 255, 255)" stroke="rgb(0, 0, 0)" stroke-miterlimit="10" pointer-events="all"/><g fill="rgb(0, 0, 0)" font-family="Dejavu Sans" text-anchor="middle" font-size="11.999999999999998px"><text x="579.5" y="242">Charge EV</text></g><path d="M 149 355 L 169 320 L 309 320 L 289 355 Z" fill="rgb(255, 255, 255)" stroke="rgb(0, 0, 0)" stroke-miterlimit="10" pointer-events="all"/><g fill="rgb(0, 0, 0)" font-family="Dejavu Sans" text-anchor="middle" font-size="11.999999999999998px"><text x="228.5" y="335">Agree on Charging</text><text x="228.5" y="349">Speed</text></g><path d="M 319 355 L 339 320 L 479 320 L 459 355 Z" fill="rgb(255, 255, 255)" stroke="rgb(0, 0, 0)" stroke-miterlimit="10" pointer-events="all"/><g fill="rgb(0, 0, 0)" font-family="Dejavu Sans" text-anchor="middle" font-size="11.999999999999998px"><text x="398.5" y="342">Begin Charging</text></g><path d="M 479 355 L 499 320 L 639 320 L 619 355 Z" fill="rgb(255, 255, 255)" stroke="rgb(0, 0, 0)" stroke-miterlimit="10" pointer-events="all"/><g fill="rgb(0, 0, 0)" font-family="Dejavu Sans" text-anchor="middle" font-size="11.999999999999998px"><text x="558.5" y="342">End Charging</text></g><path d="M 105.84 302.91 L 168.69 320.55" fill="none" stroke="rgb(0, 0, 0)" stroke-miterlimit="10" pointer-events="stroke"/><path d="M 30 280 C 6 280 0 290 19.2 292 C 0 296.4 21.6 306 37.2 302 C 48 310 84 310 96 302 C 120 302 120 294 105 290 C 120 282 96 274 75 278 C 60 272 36 272 30 280 Z" fill="rgb(255, 255, 255)" stroke="rgb(0, 0, 0)" stroke-miterlimit="10" pointer-events="all"/><g fill="rgb(0, 0, 0)" font-family="Dejavu Sans" text-anchor="middle" font-size="11.999999999999998px"><text x="59.5" y="294.5">Accurately</text></g></g></svg>